<svg xmlns="http://www.w3.org/2000/svg" version="1.1" viewBox="0 0 1920 911"><path d="M793 0c2.02.867 2.02.867 4.063 1.938 4.895 2.473 9.799 2.59 15.177 2.646C816.953 4.69 819.883 5.808 824 8c2.91.672 2.91.672 5.938 1 4.941.664 9.754 1.555 14.625 2.625 4.816 1.023 8.968 1.434 13.875 1.125 4.59-.155 6.736.579 10.25 3.563 2.345 2.316 3.253 3.511 4.312 6.687 2.68 1.587 2.68 1.587 5.875 3 7.104 3.287 7.104 3.287 9.125 6v3l1.938.75L893 37l2.195.883c4.46 1.87 7.472 3.537 10.805 7.117 1.326.362 2.66.697 4 1 3.125 2.395 3.525 4.564 4.063 8.375.84 5.816 1.876 10.024 6.312 14.063 2.334 2.208 3.843 3.914 5.563 6.687C931.981 83.55 943.313 85.929 953 88c4.257.512 8.028.187 12.25-.625 2.75-.375 2.75-.375 5 .563 4.228 1.633 8.268 1.26 12.75 1.062l3.14-.125c8.688-.514 12.8-2.477 18.86-8.875 1.593-1.593 3.423-1.118 5.625-1.188 5.038-.43 7.306-1.916 10.86-5.378 2.783-2.633 5.41-3.37 9.163-3.586 3.95.18 7.603.986 11.415 1.965l2.103.501c4.034 1.016 7.519 2.13 10.834 4.686.125 3 .125 3 0 6 1.175 1.79 1.175 1.79 3 3 2.136-.15 4.274-.325 6.392-.64 2.73-.377 5.406-.535 8.159-.641l2.865-.114 5.852-.21 2.845-.114 2.556-.092c2.33-.111 2.33-.111 4.492-.812L1093 83c2.316 1.68 2.316 1.68 5 4a202.412 202.412 0 0 0 6.938 4.125l1.802 1.05c6.064 3.46 11.23 5.442 18.26 4.825 7.622-2.56 7.622-2.56 13-8 6.868-1.296 10.802-1.1 17 2 3.237.708 3.237.708 6 1l1 4c5.942-.34 10.85-.734 16-4l1.277-1.578c3.818-3.151 10.059-1.831 14.723-1.422 2.329.55 4.44 1.264 6.664 2.14 3.844 1.415 7.842 2.212 11.832 3.114C1215 95 1215 95 1217 97a118.73 118.73 0 0 0 4.875 1.813c4.31 1.67 6.685 3.12 9.125 7.187l1.313 1.938c.687 2.062.687 2.062.062 5.062l-.375 3c2.583 3.098 5.453 5.024 8.938 7 3.616 2.117 6.89 4.245 10.062 7l2.004 1.73c5.488 4.762 5.488 4.762 7.996 7.27l2.688.875c5.12 1.74 9.61 4.101 13.312 8.125 2.876 2.5 5.44 4.681 8.75 6.563 2.545 1.625 2.97 2.79 4.25 5.437 1.316.7 2.654 1.36 4 2 8.895 5.285 16.428 10.161 22 19l2 1.938c2.13 2.196 3.47 4.512 4.922 7.19 1.14 1.98 2.413 3.784 3.765 5.622C1329 199 1329 199 1330 202a149.377 149.377 0 0 0 6 4c2.875 2.125 2.875 2.125 5 4v2l2.633.785c3.409 1.23 6.18 2.724 9.242 4.653l2.93 1.808L1358 221v3l4 1-.313 2.188c.443 3.98 2.42 5.111 5.313 7.812 1.325 1.78 2.566 3.598 3.79 5.45 1.307 1.842 1.307 1.842 4.21 3.55 3.487 6.417 5.081 13.756 6.777 20.8 1.418 3.71 3.266 5.603 6.223 8.2 1.376-.602 2.75-1.207 4.125-1.813l2.516-1.101c2.49-1.1 2.49-1.1 5.234-2.774 3.926-1.649 7.51-1.859 11.734-2.101 2.404-.065 2.404-.065 4.391-1.211 7.46-.515 14.065-.397 21.055 2.324 4.375 1.52 8.214.872 12.586-.3 4.508-1.157 8.91-1.498 13.546-1.712l2.366-.142c4.036-.209 7.487-.075 11.447.83 1.915.089 3.833.13 5.75.125l2.922.008c2.289.128 2.289.128 3.328-1.133 3.552-.204 7.097-.347 10.654-.43 4.544-.187 6.765-.606 10.346-3.57 5.75.01 13.87 2.87 18 7l3.875-.125c11.621-.055 19.031 4.465 27.316 12.16C1561 281 1561 281 1562 284l3.688.125c2.557.298 3.91.518 5.851 2.242A178.874 178.874 0 0 1 1575 291l3 1 1 3a374.925 374.925 0 0 0 6 4l2 3c2.931.977 5.186 1.195 8.25 1.375 4.929.43 8.465 1.125 12.75 3.625l1.438 2.688L1611 312c3.584.182 3.584.182 5.992-.023 2.926.034 4.717 1.305 7.008 3.023l-.688 2.625c-.38 4.104.56 5.906 2.688 9.375 3.468 3.468 9.103 3.809 13.813 4.813 3.954 1.473 4.21 2.548 6.187 6.187a124.01 124.01 0 0 0 3.688 3.625c8.202 8.021 14.817 17.313 17.312 28.625 1.067 4.001 2.36 5.644 5 8.75 1.454 2.61 2.724 5.3 4 8 3.394 6.924 6.614 12.304 12.59 17.34 1.827 2.151 2.043 3.825 2.473 6.598.543 3.434 1.36 5.979 2.937 9.062.125 2.75.125 2.75 0 5h2l-.5 1.875c-.448 2.798-.667 5.422-.75 8.25l-.078 2.57c.167 2.3.167 2.3 1.371 3.957 2.92 2.01 6.147 2.83 9.52 3.786 1.443.43 2.886.864 4.328 1.3l2.127.643c11.027 3.442 11.027 3.442 14.982 7.619l2.438 1.375c2.927 1.856 4.428 3.909 6.562 6.625 4.01 3.73 8.085 6.285 12.95 8.79 2.05 1.21 2.05 1.21 3.542 2.835 2.58 2.353 5.275 1.772 8.613 1.664 6.215-.62 12.505-1.575 17.645-5.262 4.21-2.626 8.166-3.343 13-4.214 1.704-.325 3.407-.652 5.11-.981l2.264-.415c1.953-.355 1.953-.355 3.876-1.417 3.598-.525 7.203-.962 10.813-1.402 3.268-.303 3.268-.303 5.187-2.598 5.648.502 9.698 1.836 13.938 5.625 5.197 3.918 11.887 2.918 18.062 2.375l3-1v4c2.704.485 5.379.957 8.121 1.148 6.484.472 11.959 1.893 16.64 6.637a97.169 97.169 0 0 1 3.012 3.727c1.177 1.632 1.177 1.632 3.227 2.488v2c2.332 1.206 4.496 2.165 7 3 1.58 3.283 2.848 6.545 4 10l3 1c3.996 5.238 5.797 11.154 7.129 17.52.72 2.623.72 2.623 2.906 4.511 2.32 2.325 2.5 3.45 2.84 6.657.809 5.03 2.71 8.198 5.785 12.207 3.01 4.73 2.523 10.304 2.527 15.73l.038 2.313c.01 3.882-.023 5.759-2.225 9.062-.285 2.158-.285 2.158-.238 4.527l-.05 2.65a431.87 431.87 0 0 0-.015 5.509c-.154 6.779-.154 6.779-3.19 9.771L1912 593c-.88 2.635-.88 2.635-1 5l4 1 .113 2.738.2 3.574.175 3.551c.182 3.11.182 3.11 2.002 4.548 1.963 2.065 1.988 3.335 2.185 6.15l.195 2.697c.202 4.26.312 8.509.333 12.773l.017 2.778c.01 1.922.016 3.845.02 5.768.01 2.916.041 5.831.072 8.747.007 1.882.012 3.763.016 5.645l.038 2.599c-.027 7.317-1.49 13.969-4.991 20.432-1.34 2.923-1.571 4.492-1.75 7.625-.646 8.583-4.765 18.922-10.625 25.375a1764.494 1764.494 0 0 1-7 3c-1.699 3.325-1.699 3.325-3 7a381.113 381.113 0 0 1-5 6l-1.5 3c-2.983 5.966-7.417 9.89-12.5 14l-1.816 2.027c-2.607 2.355-4.69 2.98-8.059 3.91-5.11 1.599-8.21 3.319-12.125 7.063a398.948 398.948 0 0 1-4.875 3.938l-2.61 2.097c-2.17 1.695-4.38 3.27-6.64 4.84-4.868 3.604-8.216 8.357-11.875 13.125-3.685 4.534-6.832 8.17-12 11a334.485 334.485 0 0 0-6.816 5.379C1805 802 1805 802 1802.762 803.059L1801 804c-.663 2.484-.663 2.484-1 5-2.139 2.139-3.133 2.427-6 3l-1 6-2.813.438c-3.194.483-3.194.483-6.187 1.562v2h-2l-.5 3.25c-.687 2.46-1.1 3.478-3.238 4.93a144.702 144.702 0 0 1-4.235 1.847c-2.917 1.4-4.79 3.674-7.027 5.973-2.125.75-2.125.75-4 1l-3 1-1 3h-7l-.75 2.438c-1.25 2.562-1.25 2.562-3.188 3.375-3.344.304-6.705.187-10.062.187l-1 4-1.73-.586c-2.719-.496-4.026-.029-6.582.961-3.902 1.413-7.566 2.08-11.688 2.625l-3.125 1.063c-2.843.927-4.926.937-7.875.937l-2 2c-1.848.379-1.848.379-4.063.563l-2.433.222L1695 861c-2.287.24-4.571.494-6.855.758-2.025.228-4.054.424-6.082.617-3.363.312-3.363.312-5.063 3.625l-2.25-1.125c-5.481-1.279-10.308-.02-15.75 1.125v-2l-1.441.84c-6.262 3.24-11.912 3.658-18.895 3.945-3.998.235-7.695.933-11.59 1.809-2.712.53-5.318.469-8.074.406-2.001.325-4.001.66-6 1a476.17 476.17 0 0 1-8.438 1.063l-2.197.275c-3.354.4-6.512.66-9.9.596-3.26.062-5.859.7-8.98 1.554-5.791 1.193-11.779 1.25-17.672 1.574-2.682.154-5.363.312-8.043.473l-3.575.2c-2.815.233-5.435.697-8.195 1.265-2.333.04-4.667.044-7 0h-2l-2.059-.07-2.379-.055-2.37-.07c-2.485.045-2.485.045-5.192 2.195l-2.563-.125c-4.271.155-7.313 1.59-11.167 3.348C1509 885 1509 885 1506 884a242.702 242.702 0 0 0-8.684-.098l-2.581.005c-2.724.005-5.448.018-8.172.03a6779.652 6779.652 0 0 0-15.576.047c-4.553.018-9.08-.01-13.628-.203l-3.242-.136-3.367-.145-3.414-.145c-2.779-.117-5.557-.236-8.336-.355l-1-3c-2.015-.733-2.015-.733-4-1v2c-5.123-1.07-10.04-2.31-15-4-1.661-.36-3.329-.69-5-1l-1.926-.504c-6.086-1.546-11.814-1.707-18.074-1.496l-1-3-3 1a128.606 128.606 0 0 1-7-2c-1.331-.341-2.664-.68-4-1v3l-1.547-.621c-7.351-2.724-14.645-3.379-22.453-3.379l-1-3c-1.73.115-3.459.243-5.188.375-.962.07-1.925.14-2.917.21-2.91.417-5.224 1.214-7.895 2.415l-1-1a99.86 99.86 0 0 0-5.313-.063l-2.925.028L1326 867h-4c-3.573.55-6.68 1.577-10 3l-1-1c-6.014-1.05-10.65-.914-16.578.457-2.25.504-4.445.843-6.735 1.106-3.459.335-3.459.335-5.878.968-4.564.762-9.133.47-13.746.342-4.82-.076-4.82-.076-9.063 2.127-3.634.116-7.209.043-10.84-.078-4.87-.124-4.87-.124-9.16 2.078-2.081.287-2.081.287-4.457.344l-2.623.09-2.733.066c-1.777.044-3.554.096-5.332.156l-2.386.057c-2.583.208-2.583.208-5.345 1.3-3.508 1.108-6.286 1.185-9.956 1.112-1.294-.015-2.587-.03-3.92-.047-2.027-.037-4.054-.078-6.081-.119-7.795-.144-14.609.177-22.167 2.041-1.341-.3-2.676-.63-4-1l-2.188.438c-6.635 1.327-13.054.436-19.687-.438a155.325 155.325 0 0 0-19.125-1.25l-2.316-.027c-4.756.024-9.003.717-13.617 1.84-2.75.581-5.33.56-8.13.437-5.07-.103-9.086.589-13.937 2-3 0-3 0-5.813-.563-3.385-.464-5.848-.063-9.187.563-3.313.125-3.313.125-6 0l-1-1c-4.511-.306-7.051-.474-11.125 1.563-3.536 1.767-5.09 1.242-8.875.437l-2.375.5c-3.03.577-5.597.14-8.625-.3-2.827-.282-5.267.067-8 .8l-1 2-2.313-.563c-2.777-.665-2.777-.665-5.687.563l-1-1c-7.114-.51-13.394.322-20 3h-3v-2l-3 2c-2.234-.023-2.234-.023-4.75-.375-7.097-.846-11.84-1.203-18.25 2.375h-2v-2c-3.771.139-7.542.287-11.313.438l-3.248.119-3.115.127-2.872.11c-2.588.12-2.588.12-5.452 1.206l-3-1-2.313.5c-3.147.585-5.558.056-8.687-.5l-2 1c-2.276.143-4.556.227-6.836.281l-2.048.056c-2.163.059-4.327.112-6.491.163-2.841.068-5.682.142-8.523.219l-3.834.092c-3.127.076-3.127.076-5.524.77C892 893 892 893 889 892l-2 1c-2.816.208-5.618.374-8.438.5-5.865.201-5.865.201-11.562 1.5a95.863 95.863 0 0 1-4.746.281l-2.787.114-2.904.105c-1.895.07-3.79.142-5.684.219l-2.545.092c-2.284.118-2.284.118-4.246.683-3.39.822-6.854.845-10.326 1.006l-2.421.123c-2.551.13-5.102.254-7.654.377-2.54.124-5.08.248-7.62.377-1.579.08-3.157.157-4.735.23-4.497.228-8.873.733-13.332 1.393-2.52.043-5.042.04-7.563 0-8.502-.079-17.046.098-25.449 1.504-4.078.677-8.16.924-12.281 1.215-2.8.192-2.8.192-5.707 1.281l-2-1c-5.607-.214-5.607-.214-11 1l-2-1c-3.572-.155-6.558.108-10 1l-1-1a124.224 124.224 0 0 0-5.863-.281l-3.627-.114-3.822-.105c-2.476-.069-4.951-.142-7.426-.219l-3.345-.092c-2.473-.16-4.538-.573-6.917-1.189-1.338.315-2.672.646-4 1l-2-1a143.46 143.46 0 0 0-6.152-.246l-3.795-.1c-2.625-.06-5.25-.117-7.875-.172-6.774-.183-13.212-.622-19.844-2.052-3.488-.642-6.797-.563-10.334-.43l-1-2-2.188.563c-3.633.565-6.379.25-9.601-1.579-2.75-1.224-5.022-1.294-8.024-1.422-5.118-.33-8.605-1.37-13.187-3.562l-2 1c-2.303-.62-2.303-.62-5.164-1.652l-3.152-1.104c-2.184-.78-4.366-1.564-6.547-2.351-5.995-2.09-10.787-3.374-17.137-2.893h-6l-1-2c-8.36-2.677-17.342-2.21-26-2v-2c-8.582-1.715-16.795-2.284-25.535-2.23h-3.761c-2.6.004-5.198.012-7.798.024-3.989.019-7.977.02-11.967.02l-7.6.018-3.616.003-3.34.02-2.939.011c-2.583.034-2.583.034-5.444 1.134l-2-1a467.368 467.368 0 0 0-6 2c-2.797.594-5.615 1.046-8.438 1.5-6.825 1.104-13.324 2.686-19.875 4.938a280.679 280.679 0 0 1-9.875 3.125c-7.68 2.063-7.68 2.063-14.812 5.437l-1 3-2.2-.695c-3.676-.4-4.724.59-7.613 2.82l-2.636 1.969L386 901a158.832 158.832 0 0 1-5.977 3.726c-2.006 1.21-2.006 1.21-3.647 2.578-6.371 4.833-13.038 4.408-20.735 4.325-1.395 0-2.79.003-4.185.007-2.915.003-5.83-.012-8.744-.04a780.103 780.103 0 0 0-11.107-.008c-2.88.01-5.759.001-8.638-.014-2.018-.007-4.037 0-6.055.007-10.476-.132-18.942-2.134-27.912-7.581a124.952 124.952 0 0 0-6-2v-2h-2v-2l-2.148-.324c-3.17-.751-5.605-1.96-8.477-3.489-8.066-4.121-15.947-7.09-24.863-8.699-4.573-.889-9.029-2.231-13.512-3.488-7.209-1.997-14.384-3.897-21.71-5.4-10.592-2.194-20.028-5.686-29.849-10.256-3.362-1.313-5.742-1.7-9.316-1.782-5.829-.35-9.972-1.97-15.125-4.562-3.258-1.311-3.258-1.311-6-2l-2 1-2.188-1.938c-2.569-2.217-2.569-2.217-5.25-2.437-3.26-.795-4.596-2.6-6.82-5.008-2.595-2.41-5.587-3.836-8.71-5.46-2.425-1.38-4.068-3.193-6.032-5.157a441.534 441.534 0 0 0-7-3l-3-3-3.25-1.188c-4.068-1.637-6.2-4.29-8.93-7.636-1.847-2.209-3.81-4.179-5.882-6.176-3.185-3.13-5.794-6.39-8.376-10.023-1.684-2.131-3.535-3.798-5.562-5.602-4.486-4.315-6.419-9.305-8.578-15.008-1.467-3.473-3.296-6.264-5.422-9.367a192.29 192.29 0 0 1-3-5.938c-5.43-12.376-5.43-12.376-14.688-21.5-3.175-2.145-3.09-4.155-3.792-7.777-.356-1.975-.356-1.975-2.395-2.91L37 739c-4-5.333-4-5.333-4-8l-1.781-.746c-6.263-3.54-9.603-10.69-12.18-17.121-1.453-2.984-3.539-5.14-5.777-7.559-1.665-2.076-2.102-3.942-2.262-6.574l-4-1-.188-2.375c-.75-3.348-1.665-5.308-3.312-8.25-5.225-10.167-3.715-23.13-3.74-34.339-.01-2.597-.041-5.194-.073-7.792-.12-18.6-.12-18.6 3.313-25.244l3-1a139.905 139.905 0 0 0 3-5c6.704-8.287 11.957-13.611 22.605-15.367 3.693-.976 5.592-3.09 8.395-5.633l2.75-.5L45 592a634.84 634.84 0 0 0 2-5c5.19-4 5.19-4 8-4l.828-1.785c2.498-4.72 6.103-8.419 10.36-11.59 5.225-4.877 5.863-11.72 7.28-18.488.81-3.257 2.103-6.1 3.532-9.137l.664-2.012c2.01-2.991 4.954-3.78 8.211-4.988 4.43-1.663 8.203-3.102 11.125-7 .581-2.407.581-2.407.563-4.938.139-5.304 1.71-8.417 5.566-12.09 7.246-5.687 14.326-10.849 23.121-13.784 5.774-2.16 7.797-6.017 10.75-11.188 2.287-3.51 3.956-5.734 8.184-6.813 4.311-.211 7.505.753 11.441 2.313 6.052 2.4 6.052 2.4 12.375 1.5 1.35-.978 2.68-1.982 4-3 1.394-.588 2.79-1.17 4.188-1.75 2.11-.922 2.11-.922 3.812-2.25 1.14-3.627 1.14-3.627 1-7h4l.313-2.125C187 464 187 464 188.52 461.453c1.976-4.609 1.834-8.622 1.855-13.578.387-13.384 4.212-21.597 12.484-32.129 3.783-4.852 6.754-10.016 9.641-15.433 6.16-11.066 16.913-13.915 28.5-17.313h2l.329-1.781c1.203-3.976 4.207-6.656 6.983-9.656.625-.676 1.25-1.35 1.892-2.046 5.46-5.644 10.304-8.165 17.796-10.517l3-2c2.04-.07 4.083-.084 6.125-.063 6.76-.4 9.652-2.547 14.07-7.515 1.855-2.383 1.855-2.383 3.278-5.024 3.495-5.489 10.704-8.841 16.527-11.398h2l.809-1.688c1.757-3.41 3.822-6.62 5.851-9.875 2.924-5.318 2.604-11.044 2.682-16.974.212-5.57 1.588-8.808 4.658-13.463 2.024-3.27 3.66-6.391 5-10h2l.938-2.875C338 275 338 275 339 273c.097-2.31.13-4.625.125-6.938l.008-3.777c.019-3.292.019-3.292-1.133-6.285l-2.5-.875L333 254c-.8-2.459-1-4.43-1-7l-1.063-1.875c-1.166-2.644-.886-3.436.063-6.125l1.082-2.652c1.062-3.873.799-7.117.356-11.036-.757-8.597.013-17.27 5.562-24.312 2.953-2.953 4.313-3.967 8.55-4.172l3.762.422 3.801.39c.953.12 1.906.238 2.887.36l.48-1.617c1.667-5.322 3.827-10.105 6.407-15.043 1.273-2.473 1.273-2.473 1.988-5.903 1.996-6.097 5.4-10.82 10.96-14.12C383.996 158 383.996 158 387 158c.167-2.917.167-2.917 0-6l-2-2c-.336-2.863-.336-2.863-.375-6.313l-.086-3.425c.55-3.895 1.787-5.443 4.461-8.262l2-2.125c5.2-4.875 5.2-4.875 9-4.875l1 2c1.91.84 1.91.84 4.188 1.5l2.46.77L410 130l3.313 1.188c2.857 1.005 2.857 1.005 6.687.812 1.709-1.48 1.709-1.48 3.125-3.438 2.716-3.483 2.716-3.483 4.875-4.562l1-3h4v-3a140.693 140.693 0 0 1 5-5 104.024 104.024 0 0 0 4-5l1.7-2.188c3.167-4.25 5.518-7.805 6.738-13 1.256-5.018 3.622-7.137 7.671-10.21 2.186-1.64 2.186-1.64 3.579-4.977 2.856-3.242 3.915-3.131 8.125-3.5 3.647-.13 7.269-.124 10.917-.063 11.456.19 25.801-.543 34.918-8.445 1.605-1.92 2.256-3.706 3.102-6.055 2.7-6.807 8.812-8.993 15.125-11.874 3.052-.672 5.822-.843 8.938-1 5.066-.378 8.274-1.356 12.53-4.055a80.941 80.941 0 0 1 6.5-3.578c7.49-3.743 14.167-7.599 20.595-12.992 5.481-4.5 9.403-6.887 16.562-7.063l2.198-.11c10.279-.497 19.42-.627 28.802 4.11l2.633 1.203A126.44 126.44 0 0 1 640 28l2.004 1.078c6.199 3.802 8.314 9.818 10.98 16.324 2.2 5.275 4.634 9.805 9.016 13.598 3.24 1.157 5.504 1 9 1l.75-1.813c1.486-2.6 2.63-3.731 5.25-5.187 2.938-.438 2.938-.438 6 0l2.563 2.063c2.227 2.212 2.227 2.212 4.796 1.8 3.169-1.036 4.86-2.51 7.328-4.738 4.243-3.556 7.557-5 12.86-6.293C717.143 43.595 722.252 37.884 727 33c2.334-2.033 3.842-2.954 6.84-3.82 3.488-1.302 5.168-2.755 7.785-5.367 8.364-7.764 16.293-11.857 27.457-14.004C773.441 8.6 775.906 6.163 779 3c4.421-3.49 8.548-3.847 14-3Z" fill="#CED7DC"/><path d="m1039 160 3 1c-7.203 6.685-7.203 6.685-10.688 8.063-5.045 2.045-7.686 7.401-10.312 11.937l-1.563 1.75c-1.476 2.31-1.814 3.72-2.312 6.375-.9 4.622-2.69 8.382-4.906 12.516-1.277 2.342-1.277 2.342-2.125 4.906-1.094 2.453-1.094 2.453-3.13 4.217-2.58 2.937-2.461 4.603-2.468 8.47l-.057 3.68-.001 3.836c-.055 15.107-.055 15.107-3.438 22.25l-4-4 1.438-1.125c3.115-3.738 2.677-8.933 2.59-13.605l-.038-3.182c-.035-2.195-.074-4.39-.117-6.586l-.033-3.17-.051-2.884C1001 212 1001 212 1003 209h2l.516-2.047c1.379-5.076 2.344-8.48 6.484-11.953 1.748-2.621 2.017-3.74 1.813-6.938.187-3.062.187-3.062 2.25-5.312l1.382-1.203c2-1.99 3.43-4.2 4.992-6.547 4.067-5.936 8.34-9.37 14.563-13l2-2Z" fill="#BAC5CF"/><path d="M635 27c4.904.446 8.631 2.473 12 6 2.276 4.408 3.482 9.02 3 14h2l1 6h-3v-4l-1.813-.063C646 48 646 48 644.75 45.063l-.691-1.891c-1.828-3.749-4.685-6.717-7.414-9.84C635 31 635 31 635 27Z" fill="#F8FBFB"/><path d="M1801 466c-2.431 2.431-4.517 2.619-7.785 3.375-4.938 1.393-9.272 4.002-13.527 6.813-7.598 4.375-17.367 2.858-25.688 1.812v-1l1.766-.113c7.801-.626 16.56-1.331 23.109-5.887 6.25-4 14.744-5.279 22.125-5Z" fill="#D6DFE2"/><path d="M182 469h4c-1.276 5.8-3.46 11.125-8.344 14.73-4.006 2.154-6.688 3.32-11.281 3.082L164 486l1.688-.75c2.405-1.202 2.405-1.202 4.562-3.125 2.426-1.874 4.227-2.784 7-3.938 2.08-.893 2.08-.893 3.75-2.187 1.14-3.627 1.14-3.627 1-7Z" fill="#F3F1F1"/><path d="m1039 160 3 1c-7.203 6.685-7.203 6.685-10.688 8.063-5.045 2.045-7.686 7.401-10.312 11.937l-1.625 1.875c-1.896 2.93-2.045 5.695-2.375 9.125h-1c-.789-9.026-.789-9.026 2.125-12.625L1021 177a123.166 123.166 0 0 0 3-4.063c3.628-4.935 7.774-7.83 13-10.937l2-2Z" fill="#B6C4CE"/><path d="m1414 332 3 1-.125 2.063c-.019 3.053-.019 3.053 1.313 6.187.963 4.448.139 6.365-1.446 10.48-1.643 5.024-1.01 10.197.258 15.27-1.482-1.044-1.482-1.044-3-3a55.922 55.922 0 0 1-.293-7.293l.013-2.14c.017-2.252.054-4.503.092-6.755.016-1.527.03-3.055.042-4.583.033-3.744.084-7.486.146-11.229Z" fill="#DBE2E6"/><path d="M539 48c-.625 1.875-.625 1.875-2 4-1.98.724-3.986 1.377-6 2-3.056 1.57-6.031 3.271-9 5 .505-4.56.505-4.56 2.742-6.547l2.133-1.203 2.117-1.234c3.473-1.757 6.17-2.12 10.008-2.016Z" fill="#E8EAEE"/><path d="M1002 211h1c.059 4.125.094 8.25.125 12.375l.05 3.504c.04 6.965-.461 13.361-2.175 20.121l-4-1 1.438-1.625c2.824-4.293 2.685-9.161 2.625-14.176l-.024-3.209-.039-3.303a1533.38 1533.38 0 0 1-.063-6.55l-.035-2.916C1001 212 1001 212 1002 211Z" fill="#AAB9C4"/><path d="m1030 170 3 1-3 2v-3Zm-4 5 2 1-1.68 1.906c-4.544 5.37-7.065 9.19-8.32 16.094l-2 1c-.268-5.04.075-8.709 3.07-12.89A137.13 137.13 0 0 1 1026 175Z" fill="#D6DEE4"/><path d="M1006 230c.988 2.965 1.077 4.918 1 8v3a209.443 209.443 0 0 1-.375 4.938c-.07.854-.14 1.709-.21 2.59-.421 2.508-1.16 4.275-2.415 6.472h-1c-.322-7.914-.605-17.79 3-25Z" fill="#DDE2E7"/><path d="m831 193 2 1c-7.358 5.641-7.358 5.641-10.688 7.5-3.152 2.045-5.008 4.538-7.312 7.5l-1-3c3.754-6.477 9.998-10.658 17-13Z" fill="#E2E9EC"/><path d="M1824 461c4.508 1.258 7.491 2.904 11 6l-1 3c-6.495-1.348-6.495-1.348-8.938-4.5C1824 463 1824 463 1824 461Z" fill="#D9E3E7"/><path d="M1692 418c2 2 2 2 2.125 4.625L1694 425h2l-.5 1.875c-.444 2.778-.667 5.38-.75 8.188l-.078 2.535c.394 2.886 1.43 4.24 3.328 6.402-1.938-.375-1.938-.375-4-1-1.162-2.323-1.199-3.876-1.316-6.465l-.127-2.674-.12-2.798-.13-2.788c-.158-3.429-.307-6.842-.307-10.275Z" fill="#D9E0E3"/><path d="m309 335 2 1c-5.538 6.923-5.538 6.923-9 9h-3c.929-4.063 2.617-5.687 6-7.875 2.125-1.305 2.125-1.305 4-2.125Z" fill="#F2F3F3"/><path d="m444 105 1 2c-2.577 4.146-5.473 7.983-8.5 11.813l-2.281 2.894c-2.192 2.265-3.146 2.979-6.219 3.293l1-4h4v-3a140.693 140.693 0 0 1 5-5 92.3 92.3 0 0 0 6-8Z" fill="#EBF0F0"/><path d="M456 84h4c-1.422 3.698-3.81 5.856-6.602 8.54-1.594 1.665-2.57 3.309-3.398 5.46.581-5.926 1.76-9.76 6-14Z" fill="#EEEFF0"/><path d="M650 53h3v3l3 1c1.188 3.063 1.188 3.063 2 6h-4c-2.255-2.255-2.977-4.005-4-7v-3Z" fill="#DDE6EC"/><path d="M899 40c5.875 2.75 5.875 2.75 7 5 2.025.652 2.025.652 4 1l-1 3c-4.053-1.225-7.444-2.699-11-5l1-4Z" fill="#D9E0E3"/><path d="M887 35c4.833.414 6.827 2.464 10 6l-3 1-1 2a242.9 242.9 0 0 1-3-2.813l-1.688-1.582C887 38 887 38 887 35Z" fill="#DBE3E8"/><path d="M563 41c-2.163 2.312-4.376 4.016-7.063 5.688l-2.097 1.324C552 49 552 49 550 49l-1-3a291.26 291.26 0 0 1 4.188-2.5l2.355-1.406c2.698-1.201 4.538-1.301 7.457-1.094Z" fill="#EAEDEF"/><path d="m1852 470 14 3c-3.134 2.09-3.975 2.274-7.563 2.25l-2.378.016C1854 475 1854 475 1852 473v-3Z" fill="#D8E3E9"/><path d="m746 20 4 1v4c-6.625 4-6.625 4-10 4v-2c3.462-3 3.462-3 6-3v-4Z" fill="#F1F3F5"/><path d="M635 27c4.314.48 6.166 1.746 9 5l-7 2c-2-3-2-3-2-7Z" fill="#E2E8EC"/><path d="M1701 448c8.571-.286 8.571-.286 12 2l1-2 1 3 2 2c-5.65-.601-10.662-2.075-16-4v-1Z" fill="#C4D0D9"/><path d="m782 238 3 1-7 6c0-3 0-3 2-5.188l2-1.812Zm-8 8 2 1-6 7c0-3.908 1.506-5.116 4-8Z" fill="#D9E2E8"/><path d="M1918 621c2.6 3.9 2.15 7.474 2 12h-2l-1 3c-.027-2.312-.046-4.625-.063-6.938l-.035-3.902C1917 622 1917 622 1918 621Z" fill="#E0E8EA"/><path d="M1698 444c5.114 1.068 10.072 2.231 15 4v2a307.77 307.77 0 0 1-5.813-.75l-3.269-.422c-3.342-.948-4.208-1.877-5.918-4.828Z" fill="#D7DBE1"/><path d="m995 242-3 1a90.739 90.739 0 0 0-4.188 3.563l-2.167 1.94L984 250l-2-3c7.448-6.315 7.448-6.315 13-5Z" fill="#ABBAC6"/><path d="m1560 281 2 3a454.2 454.2 0 0 0 6.09.55c1.91.45 1.91.45 3.91 3.012l1 2.438-6-1v-3h-6l-1-5Z" fill="#E1E8ED"/><path d="M646 45h4v2h2l1 6h-3v-4l-4-1v-3Z" fill="#ECF3F6"/><path d="m412 131 8 1-1 3h-8l1-4Z" fill="#ECEDEE"/><path d="m1664 371 3 1c.73 2.066.73 2.066 1.188 4.563l.48 2.503L1669 381h-3c-1.604-3.508-2.22-6.144-2-10Z" fill="#C4CED6"/><path d="M1659 354c3.867 3.222 4.88 6.15 6 11l-3-1c-1.747-3.493-3-6.068-3-10Z" fill="#D9DEE0"/><path d="m685 55 3 2c3.64-.317 3.64-.317 7-1-1.625 2.063-1.625 2.063-4 4-3.25-.25-3.25-.25-6-1v-4Z" fill="#DAE3E5"/><path d="M872 31c4.75.875 4.75.875 7 2v3c-4.75-.875-4.75-.875-7-2v-3Z" fill="#D3DFE7"/><path d="m1397 269 2 1c-5.5 5-5.5 5-10 5v-2c1.287-.697 2.58-1.382 3.875-2.063l2.18-1.16L1397 269Z" fill="#DEE7EB"/><path d="M1901 709h3c-.25 2.375-.25 2.375-1 5-1.875 1.375-1.875 1.375-4 2l-3-1 1.375-1.313c1.825-1.795 1.825-1.795 3.625-4.687Z" fill="#D9E7E5"/><path d="M857 191c5.22-.18 9.073.03 14 2v1c-5.192.212-9.127-.409-14-2v-1Z" fill="#D6DEE5"/><path d="M1008 199c1.11 4.437.86 5.926-1 10-2.125 1.375-2.125 1.375-4 2v-2h2l3-10Z" fill="#AAB9C5"/><path d="m1039 160 3 1-8 7-2-1 7-7Z" fill="#C1CCD5"/><path d="M1378 258c2 1 2 1 2.633 2.848l.492 2.214.508 2.223L1382 267l-5-4 1-5Z" fill="#DDE5E5"/><path d="M454 86c.688 1.75.688 1.75 1 4-1.313 2-1.313 2-3 4a87.796 87.796 0 0 0-2 4c.468-4.776 1.243-8.045 4-12Z" fill="#E6E9EA"/><path d="M1014 79c-2.94 1.525-5.855 2.952-9 4l-3-1c3.76-3.76 6.973-3.251 12-3Z" fill="#EAEAE8"/><path d="M1885 730h2c-.48 4.314-1.746 6.166-5 9v-4l3-1v-4Z" fill="#DEE7EB"/><path d="m1447.875 400.25 2.125.75c-2.938 1.523-5.866 2.928-9 4l-2-1c5.292-4.062 5.292-4.062 8.875-3.75Z" fill="#BFCCD4"/><path d="m1148 88-1 4-7-2v-1c5.75-2.125 5.75-2.125 8-1Z" fill="#E5EAEC"/><path d="M858 24c2.625-.188 2.625-.188 5 0v3h-7l2-3Z" fill="#D5DFE6"/><path d="m309 335 2 1c-2.25 2.063-2.25 2.063-5 4-2.313-.25-2.313-.25-4-1 5.273-3.223 5.273-3.223 7-4Z" fill="#E2E9E5"/><path d="M847 193c-1.688 1.625-1.688 1.625-4 3-2.75-.813-2.75-.813-5-2v-1c5.625-1.125 5.625-1.125 9 0Z" fill="#DBE2E7"/><path d="M1263 141c5.75.75 5.75.75 8 3-3.01.934-3.867 1.044-7 0l-1-3Z" fill="#D9DFE2"/><path d="m515 66 3 1v3l-5 1c.875-3.875.875-3.875 2-5Z" fill="#E9EBEB"/><path d="m555 43 2 1a141.4 141.4 0 0 1-5 5h-2l-1-3a100.644 100.644 0 0 1 6-3Z" fill="#E3E5EC"/></svg>