<?xml version="1.0" encoding="UTF-8"?>
<svg version="1.1" xmlns="http://www.w3.org/2000/svg" width="1920" height="911">
<path d="M0 0 C2.01953125 0.8671875 2.01953125 0.8671875 4.0625 1.9375 C8.95803105 4.41121357 13.86162576 4.52809031 19.24047852 4.58374023 C23.95259643 4.6906893 26.88344398 5.80785025 31 8 C33.9095484 8.67162811 33.9095484 8.67162811 36.9375 9 C41.87930964 9.6641612 46.69244791 10.55498856 51.5625 11.625 C56.37864196 12.64780953 60.5308218 13.05898477 65.4375 12.75 C70.02817895 12.59490949 72.17406037 13.32856811 75.6875 16.3125 C78.03302756 18.62889057 78.94142647 19.82427942 80 23 C82.6791269 24.58696851 82.6791269 24.58696851 85.875 26 C92.97920496 29.28676471 92.97920496 29.28676471 95 32 C95 32.99 95 33.98 95 35 C95.639375 35.2475 96.27875 35.495 96.9375 35.75 C97.948125 36.1625 98.95875 36.575 100 37 C100.72445312 37.29132812 101.44890625 37.58265625 102.1953125 37.8828125 C106.65542889 39.75223422 109.6668361 41.41993507 113 45 C114.32594105 45.36162029 115.65938457 45.69728039 117 46 C120.12468849 48.39454771 120.52475854 50.56382267 121.0625 54.375 C121.90367396 60.19111709 122.93895373 64.39856704 127.375 68.4375 C129.70850005 70.64641894 131.21831338 72.35211835 132.9375 75.125 C138.98174374 83.55030945 150.31317207 85.92947711 160 88 C164.25699225 88.51198961 168.02756648 88.18700645 172.25 87.375 C175 87 175 87 177.25 87.9375 C181.47803976 89.57106082 185.51790634 89.19810359 190 89 C191.03640625 88.95875 192.0728125 88.9175 193.140625 88.875 C201.8284341 88.36143493 205.93912237 86.39759305 212 80 C213.59263976 78.40736024 215.42260474 78.8823645 217.625 78.8125 C222.66255784 78.38132529 224.93076408 76.89587355 228.484375 73.43359375 C231.2677194 70.80089428 233.89409713 70.06361388 237.6484375 69.84765625 C241.5983977 70.0271999 245.25127994 70.83389541 249.0625 71.8125 C249.75666016 71.97814453 250.45082031 72.14378906 251.16601562 72.31445312 C255.19961579 73.32955668 258.68468274 74.44430883 262 77 C262.125 80 262.125 80 262 83 C263.17460805 84.79025457 263.17460805 84.79025457 265 86 C267.13604517 85.84907237 269.27410647 85.67499269 271.39208984 85.359375 C274.12201428 84.9831862 276.79763462 84.8254648 279.55078125 84.71875 C280.49630859 84.68136719 281.44183594 84.64398438 282.41601562 84.60546875 C284.36651073 84.534446 286.31703232 84.46414756 288.26757812 84.39453125 C289.20666016 84.35714844 290.14574219 84.31976563 291.11328125 84.28125 C291.95673096 84.25095703 292.80018066 84.22066406 293.66918945 84.18945312 C295.9990129 84.07754958 295.9990129 84.07754958 298.16064453 83.37744141 C298.76763184 83.25288574 299.37461914 83.12833008 300 83 C302.31640625 84.6796875 302.31640625 84.6796875 305 87 C307.29777439 88.42435138 309.5878381 89.79462093 311.9375 91.125 C312.53240234 91.47175781 313.12730469 91.81851563 313.74023438 92.17578125 C319.80350549 95.63482772 324.970474 97.61662509 332 97 C339.62188829 94.44051713 339.62188829 94.44051713 345 89 C351.86755206 87.70423546 355.80157201 87.90078601 362 91 C365.2366963 91.70758326 365.2366963 91.70758326 368 92 C368.33 93.32 368.66 94.64 369 96 C374.94190699 95.65945592 379.85024484 95.2656984 385 92 C385.42152344 91.47921875 385.84304688 90.9584375 386.27734375 90.421875 C390.09530186 87.27054449 396.33597155 88.5908747 401 89 C403.32859941 89.5494448 405.44050968 90.26442946 407.6640625 91.140625 C411.50810068 92.55481965 415.50604094 93.35194029 419.49609375 94.25390625 C422 95 422 95 424 97 C425.61026016 97.64242087 427.2379723 98.24172625 428.875 98.8125 C433.18516689 100.48315547 435.55978098 101.9329683 438 106 C438.433125 106.639375 438.86625 107.27875 439.3125 107.9375 C440 110 440 110 439.375 113 C439.189375 114.485 439.189375 114.485 439 116 C441.58339311 119.0976517 444.45254229 121.02393769 447.9375 123 C451.55385263 125.11701811 454.82720426 127.24467738 458 130 C458.66128906 130.57105469 459.32257813 131.14210937 460.00390625 131.73046875 C465.49239865 136.49239865 465.49239865 136.49239865 468 139 C468.886875 139.28875 469.77375 139.5775 470.6875 139.875 C475.80858067 141.61423494 480.29802294 143.97611189 484 148 C486.87575596 150.50065736 489.43928979 152.68141465 492.75 154.5625 C495.29500089 156.18847279 495.71941219 157.35345187 497 160 C498.31623978 160.69981074 499.65396678 161.3593622 501 162 C509.8954397 167.28549863 517.42776987 172.16129014 523 181 C523.66 181.639375 524.32 182.27875 525 182.9375 C527.12996998 185.13403155 528.46983579 187.44954818 529.921875 190.12890625 C531.06176662 192.10719641 532.33489904 193.91155099 533.6875 195.75 C536 199 536 199 537 202 C538.96498322 203.38442 540.97048465 204.71203834 543 206 C545.875 208.125 545.875 208.125 548 210 C548 210.66 548 211.32 548 212 C548.86882812 212.25910156 549.73765625 212.51820313 550.6328125 212.78515625 C554.04181888 214.01508779 556.81360021 215.50856924 559.875 217.4375 C561.32519531 218.33275391 561.32519531 218.33275391 562.8046875 219.24609375 C563.52914063 219.82488281 564.25359375 220.40367187 565 221 C565 221.99 565 222.98 565 224 C566.32 224.33 567.64 224.66 569 225 C568.896875 225.721875 568.79375 226.44375 568.6875 227.1875 C569.12982947 231.16846527 571.10635049 232.29926045 574 235 C575.32498568 236.78081166 576.56557492 238.59756472 577.7890625 240.44921875 C579.09698879 242.29173316 579.09698879 242.29173316 582 244 C585.48681849 250.41680666 587.08112316 257.75554875 588.77734375 264.80078125 C590.19456474 268.50910072 592.04270752 270.40323411 595 273 C596.37581764 272.39769761 597.75060816 271.79304888 599.125 271.1875 C599.95515625 270.82398438 600.7853125 270.46046875 601.640625 270.0859375 C604.13139158 268.98682207 604.13139158 268.98682207 606.875 267.3125 C610.80129558 265.66345586 614.38432488 265.45335841 618.609375 265.2109375 C621.01347777 265.14612287 621.01347777 265.14612287 623 264 C630.45960777 263.48486108 637.06521122 263.60322337 644.0546875 266.32421875 C648.42995195 267.84413994 652.26889046 267.19611307 656.640625 266.0234375 C661.14901935 264.86692056 665.5501291 264.52629329 670.1875 264.3125 C671.35829102 264.24192383 671.35829102 264.24192383 672.55273438 264.16992188 C676.58893796 263.9610937 680.03959308 264.09533852 684 265 C685.91505483 265.08895063 687.83288749 265.13018139 689.75 265.125 C690.71421875 265.12757813 691.6784375 265.13015625 692.671875 265.1328125 C694.96050141 265.26139398 694.96050141 265.26139398 696 264 C699.5521767 263.79615564 703.09747543 263.65337422 706.65429688 263.5703125 C711.19819272 263.38277424 713.41893068 262.96392359 717 260 C722.75072706 260.01080964 730.86908846 262.86908846 735 267 C736.918125 266.938125 736.918125 266.938125 738.875 266.875 C750.4960919 266.81966147 757.9059853 271.34049615 766.19140625 279.03515625 C768 281 768 281 769 284 C770.216875 284.04125 771.43375 284.0825 772.6875 284.125 C775.24453111 284.42316971 776.59806121 284.64294777 778.5390625 286.3671875 C779.72451204 287.88718108 780.86430726 289.44247853 782 291 C782.99 291.33 783.98 291.66 785 292 C785.33 292.99 785.66 293.98 786 295 C787.98689731 296.35278115 789.98745218 297.68568305 792 299 C792.66 299.99 793.32 300.98 794 302 C796.93142765 302.97714255 799.18590667 303.19526268 802.25 303.375 C807.17897876 303.80530767 810.71459605 304.50018103 815 307 C815.474375 307.886875 815.94875 308.77375 816.4375 309.6875 C817.2109375 310.8321875 817.2109375 310.8321875 818 312 C821.5839599 312.18159718 821.5839599 312.18159718 823.9921875 311.9765625 C826.91832763 312.01071978 828.70894172 313.28170629 831 315 C830.773125 315.86625 830.54625 316.7325 830.3125 317.625 C829.93251057 321.72888583 830.87160058 323.53149724 833 327 C836.46835171 330.46835171 842.1034 330.80892131 846.8125 331.8125 C850.7670097 333.28574871 851.0221245 334.36070908 853 338 C854.20182998 339.23552614 855.4352021 340.44065625 856.6875 341.625 C864.88973862 349.64597368 871.50503734 358.93809302 874 370.25 C875.06700025 374.25125093 876.36009974 375.89423499 879 379 C880.45446877 381.60932786 881.72425343 384.29966976 883 387 C886.39395501 393.92366822 889.61434194 399.30397859 895.58984375 404.33984375 C897.41739663 406.49139492 897.63312935 408.16534968 898.0625 410.9375 C898.60636859 414.37164169 899.42262698 416.91665767 901 420 C901.125 422.75 901.125 422.75 901 425 C901.66 425 902.32 425 903 425 C902.7525 425.928125 902.7525 425.928125 902.5 426.875 C902.05233804 429.67288724 901.83268148 432.29729326 901.75 435.125 C901.72421875 435.97320312 901.6984375 436.82140625 901.671875 437.6953125 C901.8388073 439.99431659 901.8388073 439.99431659 903.04296875 441.65234375 C905.9626997 443.66293692 909.1901978 444.48265639 912.5625 445.4375 C914.00605378 445.86827065 915.44876721 446.30186746 916.890625 446.73828125 C917.59251953 446.95049316 918.29441406 447.16270508 919.01757812 447.38134766 C930.04480487 450.8226029 930.04480487 450.8226029 934 455 C934.804375 455.45375 935.60875 455.9075 936.4375 456.375 C939.36476076 458.2313117 940.86584319 460.28380042 943 463 C947.00919166 466.72948062 951.08485941 469.28547168 955.94921875 471.7890625 C958 473 958 473 959.4921875 474.625 C962.07198219 476.97755889 964.76700894 476.39659708 968.10546875 476.2890625 C974.31990927 475.6684571 980.60999893 474.71441838 985.75 471.02734375 C989.9603308 468.40094749 993.91587339 467.68440868 998.75 466.8125 C1000.45353763 466.48783476 1002.15668472 466.16111145 1003.859375 465.83203125 C1004.60670898 465.69514893 1005.35404297 465.5582666 1006.12402344 465.41723633 C1008.07730163 465.06233328 1008.07730163 465.06233328 1010 464 C1013.59808195 463.47527972 1017.20314945 463.03773075 1020.8125 462.59765625 C1024.08113372 462.29532222 1024.08113372 462.29532222 1026 460 C1031.64811569 460.50205473 1035.69769538 461.83623842 1039.9375 465.625 C1045.13513672 469.54339575 1051.82521037 468.54300914 1058 468 C1058.99 467.67 1059.98 467.34 1061 467 C1061 468.32 1061 469.64 1061 471 C1063.70381488 471.48530011 1066.37867171 471.95651846 1069.12109375 472.1484375 C1075.60493705 472.62039836 1081.0798169 474.04096746 1085.76171875 478.78515625 C1086.79472408 480.00325212 1087.80174387 481.24417426 1088.7734375 482.51171875 C1089.94952358 484.14384607 1089.94952358 484.14384607 1092 485 C1092 485.66 1092 486.32 1092 487 C1094.33214148 488.20628008 1096.49642139 489.1654738 1099 490 C1100.58072959 493.28305377 1101.84845643 496.54536928 1103 500 C1103.99 500.33 1104.98 500.66 1106 501 C1109.99564452 506.23819252 1111.79694292 512.15366513 1113.12890625 518.51953125 C1113.84866417 521.14262887 1113.84866417 521.14262887 1116.03515625 523.03125 C1118.35534879 525.35605525 1118.53420941 526.48097032 1118.875 529.6875 C1119.68372915 534.7179437 1121.5844752 537.88636988 1124.66015625 541.89453125 C1127.67053772 546.62513071 1127.18287009 552.19874676 1127.1875 557.625 C1127.19974609 558.388125 1127.21199219 559.15125 1127.22460938 559.9375 C1127.23482665 563.82006322 1127.20214051 565.69678923 1125 569 C1124.71500079 571.15843373 1124.71500079 571.15843373 1124.76171875 573.52734375 C1124.74560547 574.40197266 1124.72949219 575.27660156 1124.71289062 576.17773438 C1124.69600013 578.01360157 1124.69074134 579.84961358 1124.69726562 581.68554688 C1124.54261946 588.46503504 1124.54261946 588.46503504 1121.5078125 591.45703125 C1120.68023438 591.96621094 1119.85265625 592.47539063 1119 593 C1118.12056596 595.63460948 1118.12056596 595.63460948 1118 598 C1119.32 598.33 1120.64 598.66 1122 599 C1122.03738281 599.90363281 1122.07476563 600.80726563 1122.11328125 601.73828125 C1122.17902344 602.91777344 1122.24476562 604.09726562 1122.3125 605.3125 C1122.37050781 606.48425781 1122.42851563 607.65601563 1122.48828125 608.86328125 C1122.67047883 611.97328456 1122.67047883 611.97328456 1124.48980713 613.41101074 C1126.45285968 615.47648826 1126.47788245 616.74630289 1126.67480469 619.56054688 C1126.77118225 620.89557251 1126.77118225 620.89557251 1126.86950684 622.25756836 C1127.07219874 626.51732172 1127.18199186 630.76676256 1127.203125 635.03125 C1127.20882507 635.94781372 1127.21452515 636.86437744 1127.22039795 637.80871582 C1127.22977087 639.73135246 1127.23635088 641.6540046 1127.24023438 643.57666016 C1127.24997595 646.49279935 1127.28108737 649.40824312 1127.3125 652.32421875 C1127.31902884 654.20572505 1127.32427978 656.0872363 1127.328125 657.96875 C1127.3466452 659.25513367 1127.3466452 659.25513367 1127.36553955 660.56750488 C1127.33901323 667.88485173 1125.87588604 674.53682577 1122.375 681 C1121.03542679 683.92270518 1120.80402826 685.49200547 1120.625 688.625 C1119.97865662 697.20844008 1115.86016097 707.54723848 1110 714 C1107.66875071 715.00484883 1105.33556463 716.00522247 1103 717 C1101.30096474 720.32519416 1101.30096474 720.32519416 1100 724 C1098.35366057 726.0167658 1096.68732277 728.01739574 1095 730 C1094.505 730.99 1094.01 731.98 1093.5 733 C1090.51698489 738.96603023 1086.08277009 742.89052631 1081 747 C1080.40058594 747.66902344 1079.80117187 748.33804688 1079.18359375 749.02734375 C1076.57708163 751.382064 1074.49388093 752.00741455 1071.125 752.9375 C1066.01565315 754.53571357 1062.91433947 756.2558492 1059 760 C1057.38589318 761.32587346 1055.75973376 762.6371436 1054.125 763.9375 C1053.26390625 764.62972656 1052.4028125 765.32195313 1051.515625 766.03515625 C1049.34542364 767.73020483 1047.13503608 769.30454185 1044.875 770.875 C1040.00739095 774.47918537 1036.65899725 779.23154776 1033 784 C1029.31489 788.53375566 1026.16758209 792.17013362 1021 795 C1018.6985676 796.75821142 1016.43859284 798.56161929 1014.18359375 800.37890625 C1012 802 1012 802 1009.76171875 803.05859375 C1009.18035156 803.36925781 1008.59898438 803.67992187 1008 804 C1007.33652369 806.48400985 1007.33652369 806.48400985 1007 809 C1004.8614515 811.1385485 1003.86724686 811.42655063 1001 812 C1000.67 813.98 1000.34 815.96 1000 818 C999.071875 818.144375 998.14375 818.28875 997.1875 818.4375 C993.99274889 818.92100111 993.99274889 818.92100111 991 820 C991 820.66 991 821.32 991 822 C990.34 822 989.68 822 989 822 C988.835 823.0725 988.67 824.145 988.5 825.25 C987.81312066 827.71090585 987.40018379 828.72841459 985.26171875 830.1796875 C983.86040855 830.81832605 982.44832834 831.43376791 981.02734375 832.02734375 C978.10976316 833.42710785 976.23669419 835.70117542 974 838 C971.875 838.75 971.875 838.75 970 839 C969.01 839.33 968.02 839.66 967 840 C966.67 840.99 966.34 841.98 966 843 C963.69 843 961.38 843 959 843 C958.7525 843.804375 958.505 844.60875 958.25 845.4375 C957 848 957 848 955.0625 848.8125 C951.71787822 849.11655653 948.35692332 849 945 849 C944.67 850.32 944.34 851.64 944 853 C943.42894531 852.80664062 942.85789062 852.61328125 942.26953125 852.4140625 C939.55124758 851.91812779 938.24410796 852.38505233 935.6875 853.375 C931.78647879 854.7883208 928.12203357 855.45558047 924 856 C922.96875 856.350625 921.9375 856.70125 920.875 857.0625 C918.03208371 857.98953792 915.94917071 858 913 858 C912.34 858.66 911.68 859.32 911 860 C909.15234375 860.37890625 909.15234375 860.37890625 906.9375 860.5625 C906.13441406 860.63597656 905.33132813 860.70945312 904.50390625 860.78515625 C903.67761719 860.85605469 902.85132813 860.92695312 902 861 C899.71316669 861.23971797 897.42868015 861.49379529 895.14453125 861.7578125 C893.11964737 861.98648791 891.0910763 862.18180226 889.0625 862.375 C885.70017517 862.68671482 885.70017517 862.68671482 884 866 C883.2575 865.62875 882.515 865.2575 881.75 864.875 C876.26885094 863.59606522 871.44193625 864.85525613 866 866 C866 865.34 866 864.68 866 864 C865.28650391 864.41572266 865.28650391 864.41572266 864.55859375 864.83984375 C858.29745646 868.07995347 852.64703008 868.49828083 845.6640625 868.78515625 C841.66639911 869.01956082 837.96929787 869.71816197 834.07421875 870.59375 C831.36232124 871.12489377 828.75553812 871.06262587 826 871 C823.99865835 871.32518107 821.99892053 871.66025332 820 872 C817.19122754 872.38624983 814.37766952 872.72647181 811.5625 873.0625 C810.83740234 873.15337891 810.11230469 873.24425781 809.36523438 873.33789062 C806.01056532 873.73876303 802.85281573 873.99723521 799.46484375 873.93359375 C796.20515476 873.99606806 793.60625117 874.63417358 790.48583984 875.48779297 C784.69403291 876.68119416 778.70621682 876.73894827 772.8125 877.0625 C770.13120754 877.21554399 767.45039124 877.37449055 764.76953125 877.53515625 C763.58979736 877.600979 762.41006348 877.66680176 761.19458008 877.73461914 C758.37992007 877.9684392 755.75998991 878.43199869 753 879 C750.66700175 879.03954234 748.33291811 879.04401732 746 879 C745.34 879 744.68 879 744 879 C743.32066406 878.97679687 742.64132812 878.95359375 741.94140625 878.9296875 C740.76384766 878.90261719 740.76384766 878.90261719 739.5625 878.875 C738.38880859 878.84019531 738.38880859 878.84019531 737.19140625 878.8046875 C734.70654538 878.84994828 734.70654538 878.84994828 732 881 C730.7315625 880.938125 730.7315625 880.938125 729.4375 880.875 C725.16571273 881.03033772 722.12392563 882.46419983 718.26953125 884.22265625 C716 885 716 885 713 884 C710.09709178 883.9145609 707.21885604 883.88418672 704.31640625 883.90234375 C703.46449203 883.9037587 702.61257782 883.90517365 701.73484802 883.90663147 C699.01069631 883.91222784 696.2866268 883.92476707 693.5625 883.9375 C691.73112099 883.94251659 689.89974068 883.94707922 688.06835938 883.95117188 C684.70774679 883.95934191 681.34716529 883.97005896 677.98657227 883.98413086 C673.43413851 884.0022525 668.90722852 883.97477568 664.359375 883.78125 C663.28945312 883.73613281 662.21953125 883.69101562 661.1171875 883.64453125 C660.00601562 883.59683594 658.89484375 883.54914062 657.75 883.5 C656.62335938 883.45230469 655.49671875 883.40460937 654.3359375 883.35546875 C651.55725897 883.23772813 648.7786158 883.11921035 646 883 C645.67 882.01 645.34 881.02 645 880 C642.98491642 879.26676204 642.98491642 879.26676204 641 879 C641 879.66 641 880.32 641 881 C635.87682727 879.92982614 630.95959695 878.69077169 626 877 C624.33871537 876.64080332 622.67099977 876.31088368 621 876 C620.04673828 875.75056641 620.04673828 875.75056641 619.07421875 875.49609375 C612.987977 873.95020997 607.26048887 873.78936673 601 874 C600.67 873.01 600.34 872.02 600 871 C599.01 871.33 598.02 871.66 597 872 C594.64828869 871.40138258 592.3140622 870.73075648 590 870 C588.66869885 869.65864073 587.33641852 869.32074044 586 869 C586 869.99 586 870.98 586 872 C585.23429687 871.69255859 585.23429687 871.69255859 584.453125 871.37890625 C577.10178781 868.65474052 569.80797044 868 562 868 C561.67 867.01 561.34 866.02 561 865 C559.27014758 865.11512153 557.54111249 865.24255677 555.8125 865.375 C554.84957031 865.44460938 553.88664062 865.51421875 552.89453125 865.5859375 C549.98491062 866.00215853 547.67109226 866.79874096 545 868 C544.67 867.67 544.34 867.34 544 867 C542.23055417 866.9268824 540.45833007 866.91639077 538.6875 866.9375 C537.23923828 866.95103516 537.23923828 866.95103516 535.76171875 866.96484375 C534.85035156 866.97644531 533.93898438 866.98804688 533 867 C531.68 867 530.36 867 529 867 C525.42651763 867.54976652 522.31998931 868.57714744 519 870 C518.67 869.67 518.34 869.34 518 869 C511.98573403 867.94989007 507.3498106 868.08550578 501.421875 869.45703125 C499.17180846 869.96148165 496.97666976 870.30002001 494.6875 870.5625 C491.22827596 870.8984661 491.22827596 870.8984661 488.80859375 871.53125 C484.24486735 872.29292895 479.67565581 872.00162301 475.0625 871.87304688 C470.24342723 871.79698036 470.24342723 871.79698036 466 874 C462.36556634 874.11630188 458.79121947 874.0431125 455.16015625 873.921875 C450.29050506 873.79834077 450.29050506 873.79834077 446 876 C443.91870117 876.28710938 443.91870117 876.28710938 441.54296875 876.34375 C440.24456055 876.38822266 440.24456055 876.38822266 438.91992188 876.43359375 C438.01822266 876.45550781 437.11652344 876.47742188 436.1875 876.5 C434.40993193 876.54376344 432.6325426 876.59565297 430.85546875 876.65625 C430.06809326 876.67494141 429.28071777 876.69363281 428.46948242 876.71289062 C425.88588949 876.92098448 425.88588949 876.92098448 423.12353516 878.01367188 C419.61642642 879.12112219 416.83833035 879.197906 413.16796875 879.125 C411.87439453 879.10953125 410.58082031 879.0940625 409.24804688 879.078125 C407.22088977 879.04095189 405.19382802 879.00012844 403.16674805 878.95898438 C395.37215585 878.81469281 388.55829673 879.13567193 381 881 C379.65861646 880.70070234 378.32356107 880.37023639 377 880 C376.278125 880.144375 375.55625 880.28875 374.8125 880.4375 C368.17678701 881.7646426 361.75791214 880.87422813 355.125 880 C348.73931171 879.18214619 342.43848144 878.78056846 336 878.75 C335.23574707 878.74097656 334.47149414 878.73195313 333.68408203 878.72265625 C328.92787556 878.74746585 324.6814925 879.43962613 320.06689453 880.56347656 C317.31741163 881.14416112 314.73775504 881.12325744 311.9375 881 C306.86756192 880.89653188 302.85069719 881.58888809 298 883 C295 883 295 883 292.1875 882.4375 C288.80206891 881.97283299 286.33943757 882.37385545 283 883 C279.6875 883.125 279.6875 883.125 277 883 C276.67 882.67 276.34 882.34 276 882 C271.48885021 881.69415934 268.94872983 881.52563508 264.875 883.5625 C261.33918503 885.33040749 259.78547522 884.80542026 256 884 C255.21625 884.165 254.4325 884.33 253.625 884.5 C250.5946158 885.07721604 248.02848768 884.6408732 245 884.19921875 C242.17277569 883.9176007 239.73276262 884.26681978 237 885 C236.67 885.66 236.34 886.32 236 887 C235.236875 886.814375 234.47375 886.62875 233.6875 886.4375 C230.91032625 885.77180827 230.91032625 885.77180827 228 887 C227.67 886.67 227.34 886.34 227 886 C219.88649394 885.49082272 213.60558722 886.32205923 207 889 C206.01 889 205.02 889 204 889 C204 888.34 204 887.68 204 887 C203.01 887.66 202.02 888.32 201 889 C198.765625 888.9765625 198.765625 888.9765625 196.25 888.625 C189.15290409 887.7791252 184.41067193 887.42195055 178 891 C177.34 891 176.68 891 176 891 C176 890.34 176 889.68 176 889 C172.22887069 889.13874615 168.45818555 889.28721093 164.6875 889.4375 C163.61564453 889.47681641 162.54378906 889.51613281 161.43945312 889.55664062 C160.41142578 889.59853516 159.38339844 889.64042969 158.32421875 889.68359375 C157.37635498 889.72025146 156.42849121 889.75690918 155.4519043 889.79467773 C152.863829 889.91430187 152.863829 889.91430187 150 891 C149.01 890.67 148.02 890.34 147 890 C146.236875 890.165 145.47375 890.33 144.6875 890.5 C141.54046172 891.08549549 139.12855183 890.55618699 136 890 C135.34 890.33 134.68 890.66 134 891 C131.72393255 891.1432929 129.44398018 891.22655758 127.1640625 891.28125 C126.4883017 891.29965942 125.81254089 891.31806885 125.11630249 891.33703613 C122.95262398 891.39581835 120.78886555 891.44859378 118.625 891.5 C115.78369401 891.56783127 112.94262813 891.64157076 110.1015625 891.71875 C108.20398193 891.76418945 108.20398193 891.76418945 106.26806641 891.81054688 C103.14077342 891.88662438 103.14077342 891.88662438 100.74365234 892.58007812 C99 893 99 893 96 892 C95.34 892.33 94.68 892.66 94 893 C91.18405146 893.20794697 88.38214889 893.37426834 85.5625 893.5 C79.69735037 893.70132605 79.69735037 893.70132605 74 895 C72.42101178 895.13567654 70.83767989 895.22404 69.25390625 895.28125 C68.33416016 895.31863281 67.41441406 895.35601563 66.46679688 895.39453125 C65.02916992 895.44673828 65.02916992 895.44673828 63.5625 895.5 C61.6678251 895.56908335 59.77328046 895.64186147 57.87890625 895.71875 C57.0391626 895.74904297 56.19941895 895.77933594 55.33422852 895.81054688 C53.0498066 895.928949 53.0498066 895.928949 51.08782959 896.4942627 C47.69743541 897.31552168 44.23421973 897.33945039 40.76171875 897.5 C39.96272659 897.54060547 39.16373444 897.58121094 38.3405304 897.62304688 C35.78969114 897.75244505 33.23864274 897.87674011 30.6875 898 C28.14708516 898.12351082 25.60676209 898.24825218 23.06660461 898.37695312 C21.48846025 898.4568687 19.91016411 898.53386013 18.33171082 898.60742188 C13.8347814 898.83456751 9.45850048 899.33958248 5 900 C2.47952791 900.04267466 -0.04199516 900.04069433 -2.5625 900 C-11.06539272 899.92136168 -19.60863287 900.09794247 -28.01171875 901.50390625 C-32.09043641 902.1810267 -36.17162918 902.4284418 -40.29296875 902.71875 C-43.0939014 902.91102384 -43.0939014 902.91102384 -46 904 C-46.66 903.67 -47.32 903.34 -48 903 C-53.60703213 902.78622279 -53.60703213 902.78622279 -59 904 C-59.66 903.67 -60.32 903.34 -61 903 C-64.57199167 902.84469601 -67.55816789 903.10767316 -71 904 C-71.33 903.67 -71.66 903.34 -72 903 C-73.95120514 902.85380562 -75.90734789 902.77259222 -77.86328125 902.71875 C-79.65862305 902.66267578 -79.65862305 902.66267578 -81.49023438 902.60546875 C-83.38225586 902.55326172 -83.38225586 902.55326172 -85.3125 902.5 C-87.78787443 902.43106229 -90.26314628 902.35830734 -92.73828125 902.28125 C-94.39404175 902.23581055 -94.39404175 902.23581055 -96.08325195 902.18945312 C-98.55555481 902.02886829 -100.62107158 901.61632689 -103 901 C-104.33783393 901.31478446 -105.67203709 901.64587656 -107 902 C-107.66 901.67 -108.32 901.34 -109 901 C-111.04823796 900.86902624 -113.10037892 900.79718681 -115.15234375 900.75390625 C-116.40466797 900.72103516 -117.65699219 900.68816406 -118.94726562 900.65429688 C-121.57219623 900.59390934 -124.19719814 900.53653337 -126.82226562 900.48242188 C-133.59560835 900.29935856 -140.03421686 899.85974766 -146.66552734 898.42993164 C-150.15362414 897.78754109 -153.46339216 897.8665431 -157 898 C-157.33 897.34 -157.66 896.68 -158 896 C-158.721875 896.185625 -159.44375 896.37125 -160.1875 896.5625 C-163.82142901 897.12777785 -166.56704136 896.81346997 -169.7890625 894.984375 C-172.5389543 893.76004155 -174.8114179 893.68963185 -177.8125 893.5625 C-182.93100196 893.23126605 -186.41842329 892.19118886 -191 890 C-191.66 890.33 -192.32 890.66 -193 891 C-195.30322266 890.37915039 -195.30322266 890.37915039 -198.1640625 889.34765625 C-199.72447266 888.80141602 -199.72447266 888.80141602 -201.31640625 888.24414062 C-203.50011553 887.46424445 -205.68244347 886.68046825 -207.86328125 885.89257812 C-213.85805845 883.80214844 -218.6503721 882.51896758 -225 883 C-227 883 -229 883 -231 883 C-231.33 882.34 -231.66 881.68 -232 881 C-240.36005938 878.32345925 -249.34187243 878.78968111 -258 879 C-258 878.34 -258 877.68 -258 877 C-266.5824628 875.28523798 -274.79509201 874.71610371 -283.53515625 874.76953125 C-284.77623642 874.76998947 -286.01731659 874.77044769 -287.29600525 874.7709198 C-289.89518196 874.77391947 -292.49435725 874.78173631 -295.09350586 874.79418945 C-299.08264549 874.81259294 -303.07136927 874.81469778 -307.06054688 874.81445312 C-309.59375202 874.81936377 -312.12695559 874.8251901 -314.66015625 874.83203125 C-316.45067162 874.83370049 -316.45067162 874.83370049 -318.27735901 874.83540344 C-319.37958298 874.84178329 -320.48180695 874.84816315 -321.61743164 874.85473633 C-322.58717422 874.85854813 -323.55691681 874.86235992 -324.55604553 874.86628723 C-327.13925817 874.89979216 -327.13925817 874.89979216 -330 876 C-330.66 875.67 -331.32 875.34 -332 875 C-334.00506662 875.65126976 -336.00393004 876.32165705 -338 877 C-340.79711685 877.59397966 -343.61469398 878.04575535 -346.4375 878.5 C-353.26255752 879.60414264 -359.76155876 881.18601146 -366.3125 883.4375 C-369.58713567 884.54394686 -372.87428129 885.57748903 -376.1875 886.5625 C-383.86885428 888.62600454 -383.86885428 888.62600454 -391 892 C-391.33 892.99 -391.66 893.98 -392 895 C-392.72574219 894.77054688 -393.45148438 894.54109375 -394.19921875 894.3046875 C-397.87609588 893.9046925 -398.92449218 894.8948421 -401.8125 897.125 C-402.68261719 897.7746875 -403.55273438 898.424375 -404.44921875 899.09375 C-405.29097656 899.7228125 -406.13273437 900.351875 -407 901 C-408.96784729 902.29039166 -410.95445495 903.52366178 -412.97723389 904.7256012 C-414.98290743 905.93552128 -414.98290743 905.93552128 -416.62359619 907.30357361 C-422.99530492 912.13681034 -429.66246202 911.71243174 -437.359375 911.62890625 C-438.75409124 911.62973691 -440.14880735 911.63220371 -441.54351807 911.63621521 C-444.45867591 911.63906261 -447.37306104 911.62448578 -450.28808594 911.59692383 C-453.9909092 911.56296878 -457.69234099 911.56882611 -461.39522934 911.5875864 C-464.27471113 911.59825508 -467.15387997 911.58912829 -470.03333282 911.57420158 C-472.05148563 911.56662362 -474.06967696 911.57381193 -476.08782959 911.58143616 C-486.5644474 911.44919386 -495.03048582 909.44721152 -504 904 C-505.98451771 903.28856912 -507.98202112 902.61008664 -510 902 C-510 901.34 -510 900.68 -510 900 C-510.66 900 -511.32 900 -512 900 C-512 899.34 -512 898.68 -512 898 C-512.70898438 897.89300781 -513.41796875 897.78601563 -514.1484375 897.67578125 C-517.31726514 896.92481251 -519.75279188 895.71650567 -522.625 894.1875 C-530.69053014 890.06577688 -538.57237676 887.09790294 -547.48828125 885.48828125 C-552.06146296 884.59924904 -556.51680835 883.25691549 -561 882 C-568.20862016 880.00312936 -575.38374913 878.10324412 -582.70947266 876.59912109 C-593.30249093 874.40644986 -602.73808802 870.91443543 -612.55859375 866.34375 C-615.92088868 865.03089023 -618.30105188 864.64482672 -621.875 864.5625 C-627.70377277 864.21277363 -631.84698081 862.59181559 -637 860 C-640.2582888 858.68868374 -640.2582888 858.68868374 -643 858 C-643.66 858.33 -644.32 858.66 -645 859 C-645.721875 858.360625 -646.44375 857.72125 -647.1875 857.0625 C-649.75693204 854.84532039 -649.75693204 854.84532039 -652.4375 854.625 C-655.69890092 853.82953636 -657.0335045 852.02589409 -659.2578125 849.6171875 C-661.85328135 847.20794063 -664.84459747 845.78080931 -667.96875 844.15625 C-670.39329999 842.77612154 -672.03572971 840.96427029 -674 839 C-676.32481174 837.98034573 -678.65794699 836.97940398 -681 836 C-682 835 -683 834 -684 833 C-685.60875 832.4121875 -685.60875 832.4121875 -687.25 831.8125 C-691.31775812 830.1751634 -693.45076922 827.52268326 -696.1796875 824.17578125 C-698.02737445 821.9672799 -699.99018737 819.99745723 -702.0625 818 C-705.24722854 814.87028597 -707.85639835 811.60974363 -710.4375 807.9765625 C-712.12180657 805.84591469 -713.97312455 804.17922625 -716 802.375 C-720.48632407 798.05990967 -722.41896872 793.06990025 -724.578125 787.3671875 C-726.04462688 783.89431767 -727.87359194 781.10307223 -730 778 C-731.03383621 776.03829579 -732.03464383 774.0587936 -733 772.0625 C-738.42911586 759.68627326 -738.42911586 759.68627326 -747.6875 750.5625 C-750.86348262 748.4165658 -750.77715227 746.40690749 -751.48046875 742.78515625 C-751.83612462 740.80950964 -751.83612462 740.80950964 -753.875 739.875 C-754.57625 739.58625 -755.2775 739.2975 -756 739 C-760 733.66666667 -760 733.66666667 -760 731 C-760.88171875 730.63068359 -760.88171875 730.63068359 -761.78125 730.25390625 C-768.04366744 726.71475837 -771.38389461 719.56421518 -773.9609375 713.1328125 C-775.41441865 710.1493512 -777.49994223 707.99297805 -779.73828125 705.57421875 C-781.40264698 703.49762621 -781.84046491 701.63232893 -782 699 C-783.32 698.67 -784.64 698.34 -786 698 C-786.061875 697.21625 -786.12375 696.4325 -786.1875 695.625 C-786.93801612 692.27654347 -787.853189 690.31742888 -789.5 687.375 C-794.72487892 677.20801423 -793.21480466 664.2455834 -793.24023438 653.03637695 C-793.24999569 650.4386457 -793.28114816 647.84168933 -793.3125 645.24414062 C-793.43251924 626.64493665 -793.43251924 626.64493665 -790 620 C-789.01 619.67 -788.02 619.34 -787 619 C-785.96242683 617.35646123 -784.96817992 615.68535024 -784 614 C-777.29631147 605.71296409 -772.04258887 600.38886398 -761.39453125 598.6328125 C-757.70195927 597.6569615 -755.80331943 595.54254553 -753 593 C-752.0925 592.835 -751.185 592.67 -750.25 592.5 C-749.5075 592.335 -748.765 592.17 -748 592 C-747.32558869 590.3364521 -746.6599679 588.66933058 -746 587 C-740.81081081 583 -740.81081081 583 -738 583 C-737.59007812 582.11634766 -737.59007812 582.11634766 -737.171875 581.21484375 C-734.67416531 576.49417243 -731.06868023 572.79627154 -726.8125 569.625 C-721.58719358 564.74804734 -720.9485491 557.90432195 -719.53125 551.13671875 C-718.72148948 547.87981432 -717.42890381 545.0364206 -716 542 C-715.78085937 541.33613281 -715.56171875 540.67226563 -715.3359375 539.98828125 C-713.32595272 536.99681267 -710.38189778 536.20724113 -707.125 535 C-702.69413686 533.33728435 -698.9217567 531.89806852 -696 528 C-695.41878369 525.59301366 -695.41878369 525.59301366 -695.4375 523.0625 C-695.29813539 517.7584469 -693.72711517 514.64472068 -689.87109375 510.97265625 C-682.62523853 505.28529958 -675.54457659 500.12341404 -666.75 497.1875 C-660.97601766 495.0279041 -658.95255272 491.17144083 -656 486 C-653.71346666 482.49009851 -652.04410123 480.26647001 -647.81640625 479.1875 C-643.50461325 478.97566165 -640.31074842 479.94009971 -636.375 481.5 C-630.32344002 483.90002631 -630.32344002 483.90002631 -624 483 C-622.65009646 482.02248365 -621.31963709 481.01800576 -620 480 C-618.60598771 479.41232815 -617.20997826 478.82938156 -615.8125 478.25 C-613.70193691 477.3282301 -613.70193691 477.3282301 -612 476 C-610.86043273 472.37346335 -610.86043273 472.37346335 -611 469 C-609.68 469 -608.36 469 -607 469 C-606.8453125 467.948125 -606.8453125 467.948125 -606.6875 466.875 C-606 464 -606 464 -604.48046875 461.453125 C-602.50443115 456.84410855 -602.64619653 452.83101331 -602.625 447.875 C-602.23835274 434.49079098 -598.41280208 426.27805431 -590.140625 415.74609375 C-586.35803686 410.89361298 -583.3870764 405.73022361 -580.5 400.3125 C-574.33977929 389.24691836 -563.58707988 386.39839472 -552 383 C-551.34 383 -550.68 383 -550 383 C-549.83721558 382.1181604 -549.83721558 382.1181604 -549.67114258 381.21850586 C-548.46841016 377.24279488 -545.46354162 374.56290513 -542.6875 371.5625 C-542.06319092 370.88743408 -541.43888184 370.21236816 -540.7956543 369.5168457 C-535.33571208 363.87303912 -530.4916914 361.35246348 -523 359 C-522.01 358.34 -521.02 357.68 -520 357 C-517.95944995 356.92934383 -515.91665743 356.91578024 -513.875 356.9375 C-507.11467696 356.53761482 -504.22263903 354.38998653 -499.8046875 349.421875 C-497.95027047 347.03855134 -497.95027047 347.03855134 -496.52734375 344.3984375 C-493.0317341 338.90916813 -485.82327056 335.55655781 -480 333 C-479.34 333 -478.68 333 -478 333 C-477.73316406 332.443125 -477.46632813 331.88625 -477.19140625 331.3125 C-475.434341 327.90206515 -473.3686671 324.69155408 -471.33984375 321.4375 C-468.41644115 316.11912325 -468.73629839 310.39292409 -468.65820312 304.46289062 C-468.44569821 298.89328513 -467.07014276 295.65473257 -464 291 C-461.9760921 287.73061032 -460.34042071 284.60882498 -459 281 C-458.34 281 -457.68 281 -457 281 C-456.690625 280.05125 -456.38125 279.1025 -456.0625 278.125 C-455 275 -455 275 -454 273 C-453.90264181 270.68917466 -453.87022627 268.37537042 -453.875 266.0625 C-453.87113281 264.19271484 -453.87113281 264.19271484 -453.8671875 262.28515625 C-453.84800569 258.99323703 -453.84800569 258.99323703 -455 256 C-455.825 255.71125 -456.65 255.4225 -457.5 255.125 C-458.7375 254.568125 -458.7375 254.568125 -460 254 C-460.79912616 251.54115028 -461 249.56909202 -461 247 C-461.350625 246.38125 -461.70125 245.7625 -462.0625 245.125 C-463.22900867 242.48091368 -462.94907411 241.68904332 -462 239 C-461.46439453 237.68708984 -461.46439453 237.68708984 -460.91796875 236.34765625 C-459.85598999 232.47482305 -460.11914381 229.23148576 -460.5625 225.3125 C-461.31878684 216.71518163 -460.54883799 208.04275591 -455 201 C-452.04671471 198.04671471 -450.68747596 197.03327716 -446.44921875 196.828125 C-444.58716797 197.03695312 -444.58716797 197.03695312 -442.6875 197.25 C-440.80611328 197.44335938 -440.80611328 197.44335938 -438.88671875 197.640625 C-437.93410156 197.75921875 -436.98148437 197.8778125 -436 198 C-435.84144531 197.46632812 -435.68289063 196.93265625 -435.51953125 196.3828125 C-433.85289113 191.06061368 -431.69291476 186.27843416 -429.11328125 181.33984375 C-427.84032922 178.86730831 -427.84032922 178.86730831 -427.125 175.4375 C-425.12936158 169.33971595 -421.72427461 164.61730352 -416.1640625 161.31640625 C-409.00513456 158 -409.00513456 158 -406 158 C-405.83318891 155.08347826 -405.83318891 155.08347826 -406 152 C-406.66 151.34 -407.32 150.68 -408 150 C-408.3359375 147.13671875 -408.3359375 147.13671875 -408.375 143.6875 C-408.40335937 142.55699219 -408.43171875 141.42648438 -408.4609375 140.26171875 C-407.91058397 136.36726792 -406.67436447 134.81852166 -404 132 C-403.34 131.29875 -402.68 130.5975 -402 129.875 C-396.8 125 -396.8 125 -393 125 C-392.67 125.66 -392.34 126.32 -392 127 C-390.09034453 127.84024973 -390.09034453 127.84024973 -387.8125 128.5 C-387.00039063 128.75394531 -386.18828125 129.00789062 -385.3515625 129.26953125 C-384.57554687 129.51058594 -383.79953125 129.75164062 -383 130 C-381.3603125 130.5878125 -381.3603125 130.5878125 -379.6875 131.1875 C-376.82979816 132.19292633 -376.82979816 132.19292633 -373 132 C-371.29122271 130.52084998 -371.29122271 130.52084998 -369.875 128.5625 C-367.1589404 125.0794702 -367.1589404 125.0794702 -365 124 C-364.67 123.01 -364.34 122.02 -364 121 C-362.68 121 -361.36 121 -360 121 C-360 120.01 -360 119.02 -360 118 C-358.37897032 116.28891311 -356.70496537 114.62746694 -355 113 C-353.61096733 111.37946188 -352.28667172 109.70294787 -351 108 C-350.15888672 106.9171875 -350.15888672 106.9171875 -349.30078125 105.8125 C-346.13306026 101.56230831 -343.78195109 98.00704491 -342.5625 92.8125 C-341.30587781 87.79386514 -338.94019341 85.67515579 -334.890625 82.6015625 C-332.70482046 80.96287191 -332.70482046 80.96287191 -331.3125 77.625 C-328.45632448 74.38285482 -327.39660459 74.49368069 -323.1875 74.125 C-319.54026035 73.99430384 -315.9184641 74.00136605 -312.26953125 74.0625 C-300.81401379 74.25243604 -286.4688862 73.51886804 -277.3515625 65.6171875 C-275.74685048 63.69709855 -275.09620861 61.91132202 -274.25 59.5625 C-271.54959174 52.75474809 -265.43771101 50.56938981 -259.125 47.6875 C-256.07327046 47.0161195 -253.30265723 46.84463277 -250.1875 46.6875 C-245.12148547 46.30971652 -241.91293944 45.33180037 -237.65625 42.6328125 C-235.51111298 41.31418415 -233.40618608 40.17206905 -231.15625 39.0546875 C-223.66623838 35.31225263 -216.98993244 31.45620559 -210.5625 26.0625 C-205.0808372 21.56283206 -201.15881518 19.17596053 -194 19 C-193.27474121 18.96342285 -192.54948242 18.9268457 -191.80224609 18.88916016 C-181.52299541 18.39292047 -172.38154474 18.26308889 -163 23 C-162.13117187 23.39703125 -161.26234375 23.7940625 -160.3671875 24.203125 C-157.85676118 25.38714697 -155.42767772 26.65544003 -153 28 C-152.33871094 28.35578125 -151.67742188 28.7115625 -150.99609375 29.078125 C-144.79721321 32.88046209 -142.68150192 38.89633461 -140.015625 45.40234375 C-137.81562185 50.67694146 -135.3820787 55.20672774 -131 59 C-127.75914039 60.15744986 -125.49580416 60 -122 60 C-121.7525 59.401875 -121.505 58.80375 -121.25 58.1875 C-119.76388147 55.58679257 -118.62050161 54.45583423 -116 53 C-113.0625 52.5625 -113.0625 52.5625 -110 53 C-109.154375 53.680625 -108.30875 54.36125 -107.4375 55.0625 C-105.20974052 57.27511653 -105.20974052 57.27511653 -102.640625 56.86328125 C-99.47217248 55.827441 -97.78062727 54.35243386 -95.3125 52.125 C-91.07009043 48.56867744 -87.75603868 47.12440801 -82.453125 45.83203125 C-75.85706101 43.5948312 -70.74806511 37.88372411 -66 33 C-63.66605827 30.96721204 -62.15789876 30.04561037 -59.16015625 29.1796875 C-55.67233091 27.87768101 -53.99188818 26.4248918 -51.375 23.8125 C-43.0109302 16.04854283 -35.08244309 11.95612107 -23.91796875 9.80859375 C-19.55929194 8.60076765 -17.09398286 6.16312214 -14 3 C-9.57877894 -0.49043768 -5.45238926 -0.84714808 0 0 Z " fill="#CED7DC" transform="translate(793,0)"/>
<path d="M0 0 C0.99 0.33 1.98 0.66 3 1 C-4.20344491 7.68508287 -4.20344491 7.68508287 -7.6875 9.0625 C-12.73335308 11.10811611 -15.3740526 16.46427268 -18 21 C-18.515625 21.5775 -19.03125 22.155 -19.5625 22.75 C-21.03852122 25.06029409 -21.37656589 26.46979026 -21.875 29.125 C-22.77503963 33.74723743 -24.56585331 37.50701898 -26.78125 41.640625 C-28.05840303 43.98331701 -28.05840303 43.98331701 -28.90625 46.546875 C-30 49 -30 49 -32.03686523 50.76367188 C-34.61524999 53.70086928 -34.49739818 55.36688586 -34.50390625 59.234375 C-34.52259766 60.44867188 -34.54128906 61.66296875 -34.56054688 62.9140625 C-34.56119141 64.17992187 -34.56183594 65.44578125 -34.5625 66.75 C-34.61701028 81.85713577 -34.61701028 81.85713577 -38 89 C-39.32 87.68 -40.64 86.36 -42 85 C-41.525625 84.62875 -41.05125 84.2575 -40.5625 83.875 C-37.44720536 80.13664644 -37.88475153 74.94188375 -37.97265625 70.26953125 C-37.98490234 69.21958984 -37.99714844 68.16964844 -38.00976562 67.08789062 C-38.04511156 64.89251514 -38.08421386 62.69719712 -38.12695312 60.50195312 C-38.13791016 59.45587891 -38.14886719 58.40980469 -38.16015625 57.33203125 C-38.18541382 55.90467651 -38.18541382 55.90467651 -38.21118164 54.44848633 C-38 52 -38 52 -36 49 C-35.34 49 -34.68 49 -34 49 C-33.82984375 48.32453125 -33.6596875 47.6490625 -33.484375 46.953125 C-32.10528336 41.87689405 -31.14004288 38.47229403 -27 35 C-25.25248259 32.37872389 -24.98339512 31.26014311 -25.1875 28.0625 C-25 25 -25 25 -22.9375 22.75 C-22.48117187 22.35296875 -22.02484375 21.9559375 -21.5546875 21.546875 C-19.55455787 19.55679628 -18.12504228 17.34728573 -16.5625 15 C-12.49630179 9.06387983 -8.22275783 5.62994207 -2 2 C-1.34 1.34 -0.68 0.68 0 0 Z " fill="#BAC5CF" transform="translate(1039,160)"/>
<path d="M0 0 C4.90431296 0.44584663 8.631157 2.47311252 12 6 C14.27578473 10.40783569 15.48185154 15.02086746 15 20 C15.66 20 16.32 20 17 20 C17.33 21.98 17.66 23.96 18 26 C17.01 26 16.02 26 15 26 C15 24.68 15 23.36 15 22 C14.401875 21.979375 13.80375 21.95875 13.1875 21.9375 C11 21 11 21 9.75 18.0625 C9.52183594 17.43859375 9.29367187 16.8146875 9.05859375 16.171875 C7.23137836 12.42304933 4.37444314 9.45544395 1.64453125 6.33203125 C0 4 0 4 0 0 Z " fill="#F8FBFB" transform="translate(635,27)"/>
<path d="M0 0 C-2.43118348 2.43118348 -4.51730214 2.618607 -7.78515625 3.375 C-12.72319821 4.76845099 -17.05666086 7.37704019 -21.3125 10.1875 C-28.91001901 14.56339531 -38.67901936 13.04615811 -47 12 C-47 11.67 -47 11.34 -47 11 C-46.41734375 10.96261719 -45.8346875 10.92523438 -45.234375 10.88671875 C-37.43301 10.26113759 -28.67411467 9.55590586 -22.125 5 C-15.87414775 0.99945456 -7.38058123 -0.27903899 0 0 Z " fill="#D6DFE2" transform="translate(1801,466)"/>
<path d="M0 0 C1.32 0 2.64 0 4 0 C2.72427817 5.7999312 0.53938526 11.12508722 -4.34375 14.73046875 C-8.34959796 16.88421532 -11.03232204 18.05005231 -15.625 17.8125 C-16.40875 17.544375 -17.1925 17.27625 -18 17 C-17.443125 16.7525 -16.88625 16.505 -16.3125 16.25 C-13.90715233 15.04835816 -13.90715233 15.04835816 -11.75 13.125 C-9.32434111 11.25062722 -7.52309536 10.34130575 -4.75 9.1875 C-2.66927983 8.29362816 -2.66927983 8.29362816 -1 7 C0.13956727 3.37346335 0.13956727 3.37346335 0 0 Z " fill="#F3F1F1" transform="translate(182,469)"/>
<path d="M0 0 C0.99 0.33 1.98 0.66 3 1 C-4.20344491 7.68508287 -4.20344491 7.68508287 -7.6875 9.0625 C-12.73335308 11.10811611 -15.3740526 16.46427268 -18 21 C-18.53625 21.61875 -19.0725 22.2375 -19.625 22.875 C-21.52112884 25.80538094 -21.67016395 28.56970509 -22 32 C-22.33 32 -22.66 32 -23 32 C-23.78865979 22.9742268 -23.78865979 22.9742268 -20.875 19.375 C-19.92625 18.59125 -18.9775 17.8075 -18 17 C-16.97154473 15.66731582 -15.97295275 14.31122862 -15 12.9375 C-11.37237431 8.00170239 -7.22638172 5.10757832 -2 2 C-1.34 1.34 -0.68 0.68 0 0 Z " fill="#B6C4CE" transform="translate(1039,160)"/>
<path d="M0 0 C0.99 0.33 1.98 0.66 3 1 C2.95875 1.680625 2.9175 2.36125 2.875 3.0625 C2.8563443 6.11590608 2.8563443 6.11590608 4.1875 9.25 C5.15121724 13.69792572 4.32660903 15.61517921 2.7421875 19.73046875 C1.0994562 24.75376813 1.73175968 29.92703873 3 35 C1.51831055 33.95581055 1.51831055 33.95581055 0 32 C-0.26153286 29.48272281 -0.3497922 27.21896034 -0.29296875 24.70703125 C-0.28872391 24.00100266 -0.28447906 23.29497406 -0.28010559 22.56755066 C-0.26333034 20.31547697 -0.22568243 18.06430258 -0.1875 15.8125 C-0.17245157 14.28451815 -0.15876344 12.75652224 -0.14648438 11.22851562 C-0.11343089 7.48533128 -0.06165832 3.74281804 0 0 Z " fill="#DBE2E6" transform="translate(1414,332)"/>
<path d="M0 0 C-0.625 1.875 -0.625 1.875 -2 4 C-3.97984481 4.72433347 -5.98583438 5.37743972 -8 6 C-11.05611475 7.57043417 -14.03096228 9.27136026 -17 11 C-16.49497664 6.43948598 -16.49497664 6.43948598 -14.2578125 4.453125 C-13.55398438 4.05609375 -12.85015625 3.6590625 -12.125 3.25 C-11.42632813 2.84265625 -10.72765625 2.4353125 -10.0078125 2.015625 C-6.53519027 0.25904566 -3.83770936 -0.10372187 0 0 Z " fill="#E8EAEE" transform="translate(539,48)"/>
<path d="M0 0 C0.33 0 0.66 0 1 0 C1.05875981 4.12493872 1.09384938 8.24976768 1.125 12.375 C1.15013672 14.10943359 1.15013672 14.10943359 1.17578125 15.87890625 C1.2151302 22.84367123 0.7135811 29.24033792 -1 36 C-2.32 35.67 -3.64 35.34 -5 35 C-4.525625 34.46375 -4.05125 33.9275 -3.5625 33.375 C-0.73847404 29.08248053 -0.87737992 24.2138181 -0.9375 19.19921875 C-0.94523438 18.14025391 -0.95296875 17.08128906 -0.9609375 15.99023438 C-0.97382812 14.90033203 -0.98671875 13.81042969 -1 12.6875 C-1.02537531 10.50395431 -1.0464537 8.32035292 -1.0625 6.13671875 C-1.07410156 5.17467529 -1.08570313 4.21263184 -1.09765625 3.22143555 C-1 1 -1 1 0 0 Z " fill="#AAB9C4" transform="translate(1002,211)"/>
<path d="M0 0 C0.99 0.33 1.98 0.66 3 1 C2.01 1.66 1.02 2.32 0 3 C0 2.01 0 1.02 0 0 Z M-4 5 C-3.34 5.33 -2.68 5.66 -2 6 C-2.55429688 6.6290625 -3.10859375 7.258125 -3.6796875 7.90625 C-8.22432377 13.27571349 -10.74483481 17.09659148 -12 24 C-12.66 24.33 -13.32 24.66 -14 25 C-14.26804085 19.96083202 -13.92484049 16.29128673 -10.9296875 12.109375 C-8.69017858 9.65223355 -6.41061203 7.28886395 -4 5 Z " fill="#D6DEE4" transform="translate(1030,170)"/>
<path d="M0 0 C0.98816738 2.96450213 1.07704742 4.91810326 1 8 C1 8.99 1 9.98 1 11 C0.89549924 12.64726196 0.76841533 14.29316901 0.625 15.9375 C0.55539062 16.79214844 0.48578125 17.64679688 0.4140625 18.52734375 C-0.00605398 21.03615254 -0.74592323 22.80281671 -2 25 C-2.33 25 -2.66 25 -3 25 C-3.32156197 17.0860026 -3.60538237 7.21076475 0 0 Z " fill="#DDE2E7" transform="translate(1006,230)"/>
<path d="M0 0 C0.66 0.33 1.32 0.66 2 1 C-5.35767635 6.64149378 -5.35767635 6.64149378 -8.6875 8.5 C-11.84041104 10.54513149 -13.69640874 13.03823981 -16 16 C-16.33 15.01 -16.66 14.02 -17 13 C-13.24634028 6.52256553 -7.0016444 2.34241485 0 0 Z " fill="#E2E9EC" transform="translate(831,193)"/>
<path d="M0 0 C4.50802601 1.25805377 7.4912812 2.90407165 11 6 C10.67 6.99 10.34 7.98 10 9 C3.50534008 7.65205171 3.50534008 7.65205171 1.0625 4.5 C0 2 0 2 0 0 Z " fill="#D9E3E7" transform="translate(1824,461)"/>
<path d="M0 0 C2 2 2 2 2.125 4.625 C2.08375 5.40875 2.0425 6.1925 2 7 C2.66 7 3.32 7 4 7 C3.835 7.61875 3.67 8.2375 3.5 8.875 C3.05554255 11.65285904 2.832929 14.25535328 2.75 17.0625 C2.72421875 17.89910156 2.6984375 18.73570312 2.671875 19.59765625 C3.06608527 22.48383858 4.10192032 23.83718815 6 26 C4.0625 25.625 4.0625 25.625 2 25 C0.83848018 22.67696036 0.80098461 21.12368924 0.68359375 18.53515625 C0.64169922 17.65279297 0.59980469 16.77042969 0.55664062 15.86132812 C0.51732422 14.93771484 0.47800781 14.01410156 0.4375 13.0625 C0.39431641 12.14275391 0.35113281 11.22300781 0.30664062 10.27539062 C0.14906466 6.84623749 0 3.43320031 0 0 Z " fill="#D9E0E3" transform="translate(1692,418)"/>
<path d="M0 0 C0.66 0.33 1.32 0.66 2 1 C-3.53846154 7.92307692 -3.53846154 7.92307692 -7 10 C-7.99 10 -8.98 10 -10 10 C-9.07134386 5.93712938 -7.38267431 4.31270784 -4 2.125 C-1.875 0.8203125 -1.875 0.8203125 0 0 Z " fill="#F2F3F3" transform="translate(309,335)"/>
<path d="M0 0 C0.33 0.66 0.66 1.32 1 2 C-1.57694814 6.14552527 -4.47297227 9.98258682 -7.5 13.8125 C-8.2528125 14.76769531 -9.005625 15.72289063 -9.78125 16.70703125 C-11.97271049 18.97179764 -12.92740497 19.68575733 -16 20 C-15.67 18.68 -15.34 17.36 -15 16 C-13.68 16 -12.36 16 -11 16 C-11 15.01 -11 14.02 -11 13 C-9.37897032 11.28891311 -7.70496537 9.62746694 -6 8 C-3.83171097 5.39805317 -1.87945712 2.81918569 0 0 Z " fill="#EBF0F0" transform="translate(444,105)"/>
<path d="M0 0 C1.32 0 2.64 0 4 0 C2.57753605 3.69840628 0.19011545 5.85632808 -2.6015625 8.5390625 C-4.19613266 10.20489837 -5.17270218 11.84902568 -6 14 C-5.41903453 8.07415223 -4.23938937 4.23938937 0 0 Z " fill="#EEEFF0" transform="translate(456,84)"/>
<path d="M0 0 C0.99 0 1.98 0 3 0 C3 0.99 3 1.98 3 3 C3.99 3.33 4.98 3.66 6 4 C7.1875 7.0625 7.1875 7.0625 8 10 C6.68 10 5.36 10 4 10 C1.7448078 7.7448078 1.02276532 5.9952413 0 3 C0 2.01 0 1.02 0 0 Z " fill="#DDE6EC" transform="translate(650,53)"/>
<path d="M0 0 C5.875 2.75 5.875 2.75 7 5 C9.02463255 5.65213292 9.02463255 5.65213292 11 6 C10.67 6.99 10.34 7.98 10 9 C5.94718288 7.77472971 2.55639236 6.30119506 -1 4 C-0.67 2.68 -0.34 1.36 0 0 Z " fill="#D9E0E3" transform="translate(899,40)"/>
<path d="M0 0 C4.83256305 0.41421969 6.82679218 2.46413986 10 6 C9.01 6.33 8.02 6.66 7 7 C6.67 7.66 6.34 8.32 6 9 C4.99105628 8.07213211 3.99309093 7.13231567 3 6.1875 C2.1646875 5.40439453 2.1646875 5.40439453 1.3125 4.60546875 C0 3 0 3 0 0 Z " fill="#DBE3E8" transform="translate(887,35)"/>
<path d="M0 0 C-2.16323247 2.31242092 -4.37647804 4.0156396 -7.0625 5.6875 C-8.10083984 6.34298828 -8.10083984 6.34298828 -9.16015625 7.01171875 C-11 8 -11 8 -13 8 C-13.33 7.01 -13.66 6.02 -14 5 C-12.61217515 4.1533966 -11.21430603 3.32324661 -9.8125 2.5 C-9.03519531 2.0359375 -8.25789062 1.571875 -7.45703125 1.09375 C-4.75896614 -0.10729647 -2.9193018 -0.20741043 0 0 Z " fill="#EAEDEF" transform="translate(563,41)"/>
<path d="M0 0 C4.62 0.99 9.24 1.98 14 3 C10.86588698 5.08940868 10.02549528 5.27364412 6.4375 5.25 C5.25994141 5.25773437 5.25994141 5.25773437 4.05859375 5.265625 C2 5 2 5 0 3 C0 2.01 0 1.02 0 0 Z " fill="#D8E3E9" transform="translate(1852,470)"/>
<path d="M0 0 C1.32 0.33 2.64 0.66 4 1 C4 2.32 4 3.64 4 5 C-2.625 9 -2.625 9 -6 9 C-6 8.34 -6 7.68 -6 7 C-2.53846154 4 -2.53846154 4 0 4 C0 2.68 0 1.36 0 0 Z " fill="#F1F3F5" transform="translate(746,20)"/>
<path d="M0 0 C4.31392226 0.4793247 6.16569547 1.7457985 9 5 C6.69 5.66 4.38 6.32 2 7 C0 4 0 4 0 0 Z " fill="#E2E8EC" transform="translate(635,27)"/>
<path d="M0 0 C8.57142857 -0.28571429 8.57142857 -0.28571429 12 2 C12.33 1.34 12.66 0.68 13 0 C13.33 0.99 13.66 1.98 14 3 C14.66 3.66 15.32 4.32 16 5 C10.34979382 4.39891424 5.33835539 2.92471317 0 1 C0 0.67 0 0.34 0 0 Z " fill="#C4D0D9" transform="translate(1701,448)"/>
<path d="M0 0 C0.99 0.33 1.98 0.66 3 1 C-0.465 3.97 -0.465 3.97 -4 7 C-4 4 -4 4 -2 1.8125 C-1.34 1.214375 -0.68 0.61625 0 0 Z M-8 8 C-7.34 8.33 -6.68 8.66 -6 9 C-7.98 11.31 -9.96 13.62 -12 16 C-12 12.09161134 -10.49432124 10.88405893 -8 8 Z " fill="#D9E2E8" transform="translate(782,238)"/>
<path d="M0 0 C2.60018816 3.90028225 2.15085514 7.47434569 2 12 C1.34 12 0.68 12 0 12 C-0.33 12.99 -0.66 13.98 -1 15 C-1.02685412 12.68756208 -1.04632841 10.3750373 -1.0625 8.0625 C-1.07410156 6.77472656 -1.08570313 5.48695313 -1.09765625 4.16015625 C-1 1 -1 1 0 0 Z " fill="#E0E8EA" transform="translate(1918,621)"/>
<path d="M0 0 C5.11365014 1.0681847 10.07227969 2.23107476 15 4 C15 4.66 15 5.32 15 6 C13.05985937 5.77139428 11.12282586 5.51630819 9.1875 5.25 C8.10855469 5.11078125 7.02960938 4.9715625 5.91796875 4.828125 C2.57592898 3.87964785 1.70957577 2.95126765 0 0 Z " fill="#D7DBE1" transform="translate(1698,444)"/>
<path d="M0 0 C-0.99 0.33 -1.98 0.66 -3 1 C-4.43290728 2.14249012 -5.8264321 3.33530763 -7.1875 4.5625 C-7.90292969 5.20316406 -8.61835937 5.84382812 -9.35546875 6.50390625 C-10.16951172 7.24447266 -10.16951172 7.24447266 -11 8 C-11.66 7.01 -12.32 6.02 -13 5 C-5.55168776 -1.31487342 -5.55168776 -1.31487342 0 0 Z " fill="#ABBAC6" transform="translate(995,242)"/>
<path d="M0 0 C0.99 1.485 0.99 1.485 2 3 C4.02905208 3.19324305 6.05837402 3.38487174 8.08984375 3.55078125 C10 4 10 4 12 6.5625 C12.33 7.366875 12.66 8.17125 13 9 C10.03 8.505 10.03 8.505 7 8 C7 7.01 7 6.02 7 5 C5.02 5 3.04 5 1 5 C0.67 3.35 0.34 1.7 0 0 Z " fill="#E1E8ED" transform="translate(1560,281)"/>
<path d="M0 0 C1.32 0 2.64 0 4 0 C4 0.66 4 1.32 4 2 C4.66 2 5.32 2 6 2 C6.33 3.98 6.66 5.96 7 8 C6.01 8 5.02 8 4 8 C4 6.68 4 5.36 4 4 C2.68 3.67 1.36 3.34 0 3 C0 2.01 0 1.02 0 0 Z " fill="#ECF3F6" transform="translate(646,45)"/>
<path d="M0 0 C2.64 0.33 5.28 0.66 8 1 C7.67 1.99 7.34 2.98 7 4 C4.36 4 1.72 4 -1 4 C-0.67 2.68 -0.34 1.36 0 0 Z " fill="#ECEDEE" transform="translate(412,131)"/>
<path d="M0 0 C0.99 0.33 1.98 0.66 3 1 C3.73046875 3.06640625 3.73046875 3.06640625 4.1875 5.5625 C4.34605469 6.38878906 4.50460937 7.21507812 4.66796875 8.06640625 C4.77753906 8.70449219 4.88710937 9.34257812 5 10 C4.01 10 3.02 10 2 10 C0.39644899 6.49223216 -0.22036864 3.85645121 0 0 Z " fill="#C4CED6" transform="translate(1664,371)"/>
<path d="M0 0 C3.8665284 3.222107 4.88059018 6.14922412 6 11 C5.01 10.67 4.02 10.34 3 10 C1.25327015 6.5065403 0 3.93154432 0 0 Z " fill="#D9DEE0" transform="translate(1659,354)"/>
<path d="M0 0 C1.485 0.99 1.485 0.99 3 2 C6.63939932 1.68269476 6.63939932 1.68269476 10 1 C8.375 3.0625 8.375 3.0625 6 5 C2.75 4.75 2.75 4.75 0 4 C0 2.68 0 1.36 0 0 Z " fill="#DAE3E5" transform="translate(685,55)"/>
<path d="M0 0 C4.75 0.875 4.75 0.875 7 2 C7 2.99 7 3.98 7 5 C2.25 4.125 2.25 4.125 0 3 C0 2.01 0 1.02 0 0 Z " fill="#D3DFE7" transform="translate(872,31)"/>
<path d="M0 0 C0.66 0.33 1.32 0.66 2 1 C-3.5 6 -3.5 6 -8 6 C-8 5.34 -8 4.68 -8 4 C-6.71349294 3.30289269 -5.42059335 2.61757124 -4.125 1.9375 C-3.40570312 1.55464844 -2.68640625 1.17179687 -1.9453125 0.77734375 C-1.30335937 0.52082031 -0.66140625 0.26429688 0 0 Z " fill="#DEE7EB" transform="translate(1397,269)"/>
<path d="M0 0 C0.99 0 1.98 0 3 0 C2.75 2.375 2.75 2.375 2 5 C0.125 6.375 0.125 6.375 -2 7 C-2.99 6.67 -3.98 6.34 -5 6 C-4.54625 5.566875 -4.0925 5.13375 -3.625 4.6875 C-1.79975666 2.89201658 -1.79975666 2.89201658 0 0 Z " fill="#D9E7E5" transform="translate(1901,709)"/>
<path d="M0 0 C5.21979128 -0.1799928 9.07262981 0.02905192 14 2 C14 2.33 14 2.66 14 3 C8.80790596 3.21192221 4.873261 2.5912689 0 1 C0 0.67 0 0.34 0 0 Z " fill="#D6DEE5" transform="translate(857,191)"/>
<path d="M0 0 C1.1092007 4.43680282 0.86005602 5.92559158 -1 10 C-3.125 11.375 -3.125 11.375 -5 12 C-5 11.34 -5 10.68 -5 10 C-4.34 10 -3.68 10 -3 10 C-2.01 6.7 -1.02 3.4 0 0 Z " fill="#AAB9C5" transform="translate(1008,199)"/>
<path d="M0 0 C0.99 0.33 1.98 0.66 3 1 C-0.96 4.465 -0.96 4.465 -5 8 C-5.66 7.67 -6.32 7.34 -7 7 C-4.69 4.69 -2.38 2.38 0 0 Z " fill="#C1CCD5" transform="translate(1039,160)"/>
<path d="M0 0 C2 1 2 1 2.6328125 2.84765625 C2.79523438 3.57855469 2.95765625 4.30945313 3.125 5.0625 C3.29257813 5.79597656 3.46015625 6.52945312 3.6328125 7.28515625 C3.75398438 7.85105469 3.87515625 8.41695313 4 9 C2.35 7.68 0.7 6.36 -1 5 C-0.67 3.35 -0.34 1.7 0 0 Z " fill="#DDE5E5" transform="translate(1378,258)"/>
<path d="M0 0 C0.6875 1.75 0.6875 1.75 1 4 C-0.3125 6 -0.3125 6 -2 8 C-2.69580267 9.31836295 -3.37224433 10.64791086 -4 12 C-3.5317879 7.22423661 -2.75668002 3.95523655 0 0 Z " fill="#E6E9EA" transform="translate(454,86)"/>
<path d="M0 0 C-2.94017338 1.52453435 -5.85472185 2.95157395 -9 4 C-9.99 3.67 -10.98 3.34 -12 3 C-8.2391768 -0.7608232 -5.0273023 -0.25136512 0 0 Z " fill="#EAEAE8" transform="translate(1014,79)"/>
<path d="M0 0 C0.66 0 1.32 0 2 0 C1.5206753 4.31392226 0.2542015 6.16569547 -3 9 C-3 7.68 -3 6.36 -3 5 C-2.01 4.67 -1.02 4.34 0 4 C0 2.68 0 1.36 0 0 Z " fill="#DEE7EB" transform="translate(1885,730)"/>
<path d="M0 0 C0.70125 0.2475 1.4025 0.495 2.125 0.75 C-0.81304317 2.27342979 -3.74060559 3.67770717 -6.875 4.75 C-7.535 4.42 -8.195 4.09 -8.875 3.75 C-3.58269231 -0.31153846 -3.58269231 -0.31153846 0 0 Z " fill="#BFCCD4" transform="translate(1447.875,400.25)"/>
<path d="M0 0 C-0.33 1.32 -0.66 2.64 -1 4 C-3.31 3.34 -5.62 2.68 -8 2 C-8 1.67 -8 1.34 -8 1 C-2.25 -1.125 -2.25 -1.125 0 0 Z " fill="#E5EAEC" transform="translate(1148,88)"/>
<path d="M0 0 C2.625 -0.1875 2.625 -0.1875 5 0 C5 0.99 5 1.98 5 3 C2.69 3 0.38 3 -2 3 C-1.34 2.01 -0.68 1.02 0 0 Z " fill="#D5DFE6" transform="translate(858,24)"/>
<path d="M0 0 C0.66 0.33 1.32 0.66 2 1 C-0.25 3.0625 -0.25 3.0625 -3 5 C-5.3125 4.75 -5.3125 4.75 -7 4 C-1.7265625 0.77734375 -1.7265625 0.77734375 0 0 Z " fill="#E2E9E5" transform="translate(309,335)"/>
<path d="M0 0 C-1.6875 1.625 -1.6875 1.625 -4 3 C-6.75 2.1875 -6.75 2.1875 -9 1 C-9 0.67 -9 0.34 -9 0 C-3.375 -1.125 -3.375 -1.125 0 0 Z " fill="#DBE2E7" transform="translate(847,193)"/>
<path d="M0 0 C5.75 0.75 5.75 0.75 8 3 C4.98968256 3.93423645 4.13349732 4.04449911 1 3 C0.67 2.01 0.34 1.02 0 0 Z " fill="#D9DFE2" transform="translate(1263,141)"/>
<path d="M0 0 C0.99 0.33 1.98 0.66 3 1 C3 1.99 3 2.98 3 4 C1.35 4.33 -0.3 4.66 -2 5 C-1.125 1.125 -1.125 1.125 0 0 Z " fill="#E9EBEB" transform="translate(515,66)"/>
<path d="M0 0 C0.66 0.33 1.32 0.66 2 1 C0.37660195 2.70884005 -1.29319053 4.37446717 -3 6 C-3.66 6 -4.32 6 -5 6 C-5.33 5.01 -5.66 4.02 -6 3 C-4.03533587 1.93224776 -2.03144641 0.93446535 0 0 Z " fill="#E3E5EC" transform="translate(555,43)"/>
</svg>
